<svg height="512" viewBox="0 0 40 60" width="512" xmlns="http://www.w3.org/2000/svg"><g id="Page-1" fill="none" fill-rule="evenodd"><g id="047---Broken-Light-Bulb" fill="rgb(0,0,0)" fill-rule="nonzero"><path id="Shape" d="m7.874 12.672-.722 4.328h-5.152c-1.1045695 0-2 .8954305-2 2v1c.0029855 5.7506131 2.48385042 11.2210515 6.808 15.012 2.70574066 2.4340073 4.233007 5.9148047 4.192 9.554v1.434c.002145.7113268.3832487 1.3675874 1 1.722v2.278c-.5522847 0-1 .4477153-1 1s.4477153 1 1 1v2c-.5522847 0-1 .4477153-1 1s.4477153 1 1 1v1c0 1.6568542 1.3431458 3 3 3h10c1.6568542 0 3-1.3431458 3-3v-1c.5522847 0 1-.4477153 1-1s-.4477153-1-1-1v-2c.5522847 0 1-.4477153 1-1s-.4477153-1-1-1v-2.278c.6167513-.3544126.997855-1.0106732 1-1.722v-1.433c-.0419695-3.6415397 1.4861527-7.124813 4.194-9.56 6.1871403-5.428031 8.414393-14.0937571 5.6113413-21.8324344-2.8030516-7.73867741-10.0632477-12.96792368-18.2913413-13.1745656-.6121088-.00725747-1.1956472.25848711-1.592.725l-4.384 5.261c-.3893129.46410497-.5457776 1.08039177-.425 1.674l.667 3.34h-4.933c-.97801421-.0000388-1.81260567.7072278-1.973 1.672zm18.126 44.328c0 .5522847-.4477153 1-1 1h-10c-.5522847 0-1-.4477153-1-1v-1h12zm0-3h-12v-2h12zm-12-4v-2h12v2zm4-14h4v10h-4zm-2-23h4c.3342785.00005.6464754-.1669303.832-.445l1.703-2.555h3.465c.5522847 0 1-.44771525 1-1s-.4477153-1-1-1h-4c-.3342785-.00005002-.6464754.16693028-.832.445l-1.703 2.555h-2.645l-.746-3.732 4.383-5.261-.769-.64.775.633c7.403269.18688545 13.9353287 4.89214578 16.4576474 11.8549919 2.5223186 6.9628462.5192983 14.7599732-5.0466474 19.6450081-3.141136 2.8160296-4.9171139 6.8485999-4.874 11.067v1.433h-3v-10c-.0017729-.6999425-.3707764-1.3475968-.972-1.706.138-2.206.928-3.654 2.419-4.4.4942949-.2468713.6948713-.8477051.448-1.342s-.8477051-.6948713-1.342-.448c-2.117 1.059-3.288 3.044-3.507 5.9h-2.092c-.219-2.851-1.39-4.836-3.507-5.895-.4942949-.2468713-1.0951287-.0462949-1.342.448s-.0462949 1.0951287.448 1.342c1.491.745 2.281 2.193 2.419 4.4-.5997001.357486-.9684752 1.0028424-.972 1.701v10h-3v-1.434c.0432168-4.2181329-1.7328039-8.2504361-4.874-11.066-3.88869439-3.409414-6.12079571-8.3283445-6.126-13.5v-1h9.382l1.723 3.447c.1694246.3390516.515974.5531766.895.553h5c.5522847 0 1-.4477153 1-1s-.4477153-1-1-1h-4.382l-1.718-3.447c-.1702259-.3406694-.5191744-.5550788-.9-.553h-2.82l.667-4z"/></g></g></svg>