<svg width="188" height="66" viewBox="0 0 188 66" fill="none" xmlns="http://www.w3.org/2000/svg">
<path fill-rule="evenodd" clip-rule="evenodd" d="M171 17L135 20.1889L171 23V17Z" fill="#FFCB00"/>
<path fill-rule="evenodd" clip-rule="evenodd" d="M29.0087 0C46.1249 0 60 13.4313 60 30C60 38.1064 56.6776 45.461 51.2801 50.8592C47.4897 55.1338 42.4517 58.168 37.0209 59.2747C34.8996 59.7046 32.8589 59.9187 30.901 59.9424C30.2753 59.9795 32.332 60 29.0087 60C25.6855 60 17.7601 58.1918 13.0092 55.3239C8.32399 51.9056 4.70569 47.2764 3 42.0027H4.09801C6.60554 45.6015 10.0221 48.6145 14.2267 50.5398C16.419 53.4562 17.6705 55.7267 18.5386 57.5175C21.1698 57.7968 23.2077 57.917 25.1569 57.8996C27.1808 57.8811 29.4951 57.6871 32.6306 57.3514C33.4931 55.4499 34.8585 53.0606 37.4061 50.0602C45.5786 45.9659 51.1389 37.1433 50.8208 26.8929C50.5709 34.7615 46.8456 41.97 40.9324 46.1282C46.7648 39.6959 51.7988 33.8265 50.82 23.3222C50.2643 17.301 47.2468 11.7633 42.6895 7.71823L42.7072 7.70296C38.2592 3.76243 32.4839 1.50337 25.9859 1.44362C20.017 1.38715 14.4735 3.10274 10.1686 6.29756C9.09567 7.09368 8.09265 7.96587 7.16765 8.90334C6.59346 9.38085 6.05562 9.88193 5.54618 10.3998C11.2288 4.03135 19.6329 0 29.0087 0Z" fill="#EC5C04"/>
<path fill-rule="evenodd" clip-rule="evenodd" d="M29.0087 0C46.1249 0 60 13.4313 60 30C60 38.1064 56.6776 45.461 51.2801 50.8592C47.4897 55.1338 42.4517 58.168 37.0209 59.2747C34.8996 59.7046 32.8589 59.9187 30.901 59.9424C30.2753 59.9795 32.332 60 29.0087 60C25.6855 60 17.7601 58.1918 13.0092 55.3239C8.32399 51.9056 4.70569 47.2764 3 42.0027H4.09801C6.60554 45.6015 10.0221 48.6145 14.2267 50.5398C16.419 53.4562 17.6705 55.7267 18.5386 57.5175C21.1698 57.7968 23.2077 57.917 25.1569 57.8996C27.1808 57.8811 29.4951 57.6871 32.6306 57.3514C33.4931 55.4499 34.8585 53.0606 37.4061 50.0602C45.5786 45.9659 51.1389 37.1433 50.8208 26.8929C50.5709 34.7615 46.8456 41.97 40.9324 46.1282C46.7648 39.6959 51.7988 33.8265 50.82 23.3222C50.2643 17.301 47.2468 11.7633 42.6895 7.71823L42.7072 7.70296C38.2592 3.76243 32.4839 1.50337 25.9859 1.44362C20.017 1.38715 14.4735 3.10274 10.1686 6.29756C9.09567 7.09368 8.09265 7.96587 7.16765 8.90334C6.59346 9.38085 6.05562 9.88193 5.54618 10.3998C11.2288 4.03135 19.6329 0 29.0087 0Z" fill="#FFEC00"/>
<path fill-rule="evenodd" clip-rule="evenodd" d="M32.6687 58.435C33.598 56.2974 35.1198 53.5595 38.1115 50.0556L40.3516 47.4321L40.3708 47.4479C60.1003 39.2994 54.3176 2.20784 26.1262 1.00139C20.2492 0.943417 14.791 2.70573 10.5528 5.98789C7.52301 8.33303 5.05786 11.3246 3.3528 14.677C2.23056 16.885 1.42846 19.2527 1 21.7008C4.69018 13.1039 12.6278 6.3642 24.0196 5.47752C8.74911 9.26339 1.78952 21.7969 2.1198 34.0376C3.02663 36.5282 4.36788 39.0097 6.19276 41.4156C7.20561 42.7433 8.36496 44.0303 9.50346 45.2981C10.776 46.7138 12.0365 48.117 13.5374 50.0766C16.3373 53.739 17.8137 56.4963 18.7936 58.6056C21.3841 58.8929 23.3906 59.0161 25.31 58.9983C27.3028 58.9789 29.5814 58.7803 32.6687 58.435Z" fill="#FFEC00"/>
<path fill-rule="evenodd" clip-rule="evenodd" d="M32.6687 58.435C33.598 56.2974 35.1198 53.5595 38.1115 50.0556L40.3516 47.4321L40.3708 47.4479C60.1003 39.2994 54.3176 2.20784 26.1262 1.00139C20.2492 0.943417 14.791 2.70573 10.5528 5.98789C7.52301 8.33303 5.05786 11.3246 3.3528 14.677C2.23056 16.885 1.42846 19.2527 1 21.7008C4.69018 13.1039 12.6278 6.3642 24.0196 5.47752C8.74911 9.26339 1.78952 21.7969 2.1198 34.0376C3.02663 36.5282 4.36788 39.0097 6.19276 41.4156C7.20568 42.7433 8.36496 44.0303 9.50346 45.2981C10.776 46.7138 12.0365 48.117 13.5374 50.0766C16.3373 53.739 17.8137 56.4963 18.7936 58.6056C21.3841 58.8929 23.3906 59.0161 25.31 58.9983C27.3028 58.9789 29.5814 58.7803 32.6687 58.435Z" fill="#8F1213"/>
<path fill-rule="evenodd" clip-rule="evenodd" d="M50 26.8556C49.9956 26.0465 49.9566 25.2099 49.8789 24.3423C49.5564 16.8687 45.3272 11.1338 39.6069 7.21012C34.8731 3.96296 28.8994 3.3557 23.0211 4.60018C23.4068 4.55586 23.7942 4.51352 24.1881 4.483C16.0991 6.48348 10.3126 10.9034 6.6813 16.4328C5.7116 18.5844 5.06462 20.9218 4.81284 23.4098C7.55231 15.4703 14.205 8.65727 25.5717 5.95809C27.4313 5.51746 29.2517 5.29037 31.0248 5.25361C31.7085 5.30101 31.3916 5.31421 31.0406 5.34304C29.8909 5.44592 28.72 5.63604 27.5388 5.91832C26.9894 6.04871 26.4552 6.19165 25.929 6.34222C23.0409 7.30654 19.7326 8.80271 18.3364 9.75419C1.81451 21.0345 11.9352 50.3074 34.7997 45.4639C42.7438 43.7799 49.5231 36.1455 50 26.8556ZM2.469 37.8825C3.07533 39.0711 3.78654 40.2519 4.60803 41.417C3.24532 38.0265 2.37744 34.4309 2.04437 30.8428C1.91859 33.1994 2.06026 35.5662 2.469 37.8825Z" fill="#F1F3F6"/>
<path fill-rule="evenodd" clip-rule="evenodd" d="M34.012 57.9941C34.7899 55.7338 35.8078 53.0686 38 50C35.9341 51.0466 33.7794 51.8475 31.573 52.3719C26.2883 53.6007 21.4169 53.6109 17 52.6794C21.6938 56.1081 27.4217 58.1243 34.012 57.9941Z" fill="white"/>
<path fill-rule="evenodd" clip-rule="evenodd" d="M34.012 57.9941C34.7899 55.7338 35.8078 53.0686 38 50C35.9341 51.0466 33.7794 51.8475 31.573 52.3719C26.2883 53.6007 21.4169 53.6109 17 52.6794C21.6938 56.1081 27.4217 58.1243 34.012 57.9941Z" fill="#FFCB00"/>
<path fill-rule="evenodd" clip-rule="evenodd" d="M2.37438 38.0472C6.75595 48.4947 17.1543 56.3813 31.6442 53.341C42.5565 50.9994 51.3756 40.3394 50.9877 27.174C50.6345 38.876 42.6657 48.7808 32.8273 50.8912C13.0082 55.1392 2.29681 39.6051 3.11082 25C1.93014 29.239 1.70083 33.7232 2.37438 38.0472Z" fill="#FFEC00"/>
<path fill-rule="evenodd" clip-rule="evenodd" d="M2.37438 38.0472C6.75595 48.4947 17.1543 56.3813 31.6442 53.341C42.5565 50.9994 51.3756 40.3394 50.9877 27.174C50.6345 38.876 42.6657 48.7808 32.8273 50.8912C13.0082 55.1392 2.29681 39.6051 3.11082 25C1.93014 29.239 1.70083 33.7232 2.37438 38.0472Z" fill="#8F1213"/>
<path fill-rule="evenodd" clip-rule="evenodd" d="M20.5118 2.33361C7.68261 4.74884 1.26174 13.4237 0 23C1.44813 19.0079 3.76811 15.3514 6.87785 12.3816C10.7202 6.59442 17.34 2.43187 27 2.10674C24.9189 2.04461 22.7183 1.80865 20.5118 2.33361Z" fill="#EC5C04"/>
<path fill-rule="evenodd" clip-rule="evenodd" d="M20.5118 2.33361C7.68261 4.74884 1.26174 13.4237 0 23C1.44813 19.0079 3.76811 15.3514 6.87785 12.3816C10.7202 6.59442 17.34 2.43187 27 2.10674C24.9189 2.04461 22.7183 1.80865 20.5118 2.33361Z" fill="#FFEC00"/>
<path fill-rule="evenodd" clip-rule="evenodd" d="M2.38248 38.5556C7.04284 48.1948 17.1865 55.2178 31.1038 52.3536C42.0143 50.0577 51.3761 39.9096 50.9884 27C50.6351 38.4744 42.1236 47.8823 32.2864 49.9515C17.1499 53.1332 7.33292 44.9951 3.90008 34.5925H2C2.04189 35.9212 2.16834 37.246 2.38248 38.5556Z" fill="white"/>
<path fill-rule="evenodd" clip-rule="evenodd" d="M2.38248 38.5556C7.04284 48.1948 17.1865 55.2178 31.1038 52.3536C42.0143 50.0577 51.3761 39.9096 50.9884 27C50.6351 38.4744 42.1236 47.8823 32.2864 49.9515C17.1499 53.1332 7.33292 44.9951 3.90008 34.5925H2C2.04189 35.9212 2.16834 37.246 2.38248 38.5556Z" fill="#FFCB00"/>
<path fill-rule="evenodd" clip-rule="evenodd" d="M19.1054 58.1472C23.5572 59.653 27.9965 58.9388 33.7776 57.7455C40.5419 56.3471 48.5888 52.395 53.9473 46.6482C53.8739 45.8883 55.6223 39.9242 56 39.221C50.3038 50.3713 43.53 51.9228 37.7539 53.2943C7.93405 59.2778 -3.69986 25.1111 12.9153 11C6.70395 15.6478 3.18776 22.3274 2.17569 29.3298C0.900863 41.228 6.56566 53.9061 19.1054 58.1472Z" fill="#FFEC00"/>
<path fill-rule="evenodd" clip-rule="evenodd" d="M19.1054 58.1472C23.5572 59.653 27.9965 58.9388 33.7776 57.7455C40.5419 56.3471 48.5888 52.395 53.9473 46.6482C53.8739 45.8883 55.6223 39.9242 56 39.221C50.3038 50.3713 43.53 51.9228 37.7539 53.2943C7.93405 59.2778 -3.69986 25.1111 12.9153 11C6.70395 15.6478 3.18776 22.3274 2.17569 29.3298C0.900863 41.228 6.56566 53.9061 19.1054 58.1472Z" fill="#FFEC00"/>
<path fill-rule="evenodd" clip-rule="evenodd" d="M56.7235 37.8668C56.9344 36.6126 57.0298 35.323 56.9919 34C55.0733 46.5379 44.6194 54.1661 34.3588 56.7689C31.7832 57.3374 29.3274 57.5634 27 57.5002C29.8511 58.0957 32.916 58.1823 36.153 57.6341C45.2954 55.6682 54.0132 47.9875 56.7235 37.8668Z" fill="white"/>
<path fill-rule="evenodd" clip-rule="evenodd" d="M56.7235 37.8668C56.9344 36.6126 57.0298 35.323 56.9919 34C55.0733 46.5379 44.6194 54.1661 34.3588 56.7689C31.7832 57.3374 29.3274 57.5634 27 57.5002C29.8511 58.0957 32.916 58.1823 36.153 57.6341C45.2954 55.6682 54.0132 47.9875 56.7235 37.8668Z" fill="white"/>
<path fill-rule="evenodd" clip-rule="evenodd" d="M24.4249 6.70325C16.8387 8.25295 11.3084 11.5861 7.58997 15.8708C1.37577 24.154 0.453841 35.3524 4.27107 44.5625C9.26725 55.3262 20.742 63.3871 36.2554 60.3552C47.9507 57.9081 57.4023 46.3106 56.9868 32.5504C56.6084 44.7811 47.0766 54.5673 36.5324 56.773C7.14062 61.6127 -7.81387 14.5623 26.4007 6.66068C28.0474 6.27497 29.6661 6.06389 31.2481 6.01214C29.0444 5.94472 26.761 6.15581 24.4249 6.70325Z" fill="#FFEC00"/>
<path fill-rule="evenodd" clip-rule="evenodd" d="M24.4249 6.70325C16.8387 8.25295 11.3084 11.5861 7.58998 15.8708C1.37578 24.154 0.453841 35.3524 4.27107 44.5625C9.26725 55.3262 20.742 63.3871 36.2554 60.3552C47.9507 57.9081 57.4023 46.3106 56.9868 32.5504C56.6084 44.7811 47.0767 54.5673 36.5324 56.773C7.14062 61.6127 -7.81387 14.5623 26.4007 6.66068C28.0474 6.27497 29.6661 6.06389 31.2481 6.01214C29.0444 5.94472 26.761 6.15581 24.4249 6.70325Z" fill="#8F1213"/>
<path fill-rule="evenodd" clip-rule="evenodd" d="M36 61.7441C33.7081 63.615 33.4003 65.9067 31.2113 65.9991C29.6266 66.0657 24.5426 62.2694 23 61C23.4497 61.1822 23.9098 61.3538 24.3784 61.5169C28.6402 63.3122 32.6841 62.7911 36 61.7441Z" fill="#EC5C04"/>
<path fill-rule="evenodd" clip-rule="evenodd" d="M36 61.7441C33.7081 63.615 33.4003 65.9067 31.2113 65.9991C29.6266 66.0657 24.5426 62.2694 23 61C23.4497 61.1822 23.9098 61.3538 24.3784 61.5169C28.6402 63.3122 32.6841 62.7911 36 61.7441Z" fill="#FFCB00"/>
<path fill-rule="evenodd" clip-rule="evenodd" d="M36 62.0215C33.942 63.177 34.1231 63.9569 31.3043 63.9994C29.3315 64.0294 26.6294 62.8775 25 62C29.3412 62.5858 30.0261 63.0392 36 62.0215Z" fill="#8F1213"/>
<path fill-rule="evenodd" clip-rule="evenodd" d="M32.1052 64.9937C31.2769 65.0277 29.2919 64.9426 29 64.2835C30.7156 64.5564 32.3396 64.2923 34 64C33.9149 64.4165 32.9332 64.9598 32.1052 64.9937Z" fill="white"/>
<path fill-rule="evenodd" clip-rule="evenodd" d="M32.1052 64.9937C31.2769 65.0276 29.2918 64.9426 29 64.2835C30.7156 64.5564 32.3396 64.2923 34 64C33.9149 64.4165 32.9331 64.9598 32.1052 64.9937Z" fill="white"/>
<path fill-rule="evenodd" clip-rule="evenodd" d="M177.156 31.5167H173.128V27.4617H177.156V20.2529H181.183V27.4617H185.658V31.5167H181.183V41.8793C181.183 42.9005 181.526 43.7565 182.212 44.4474C182.898 45.1383 183.748 45.4836 184.763 45.4836H187V49.5386H184.763C183.629 49.5386 182.6 49.3508 181.675 48.9754C180.75 48.6 179.952 48.0742 179.281 47.3985C178.61 46.7225 178.088 45.9193 177.715 44.988C177.342 44.057 177.156 43.0208 177.156 41.8793V31.5167ZM113.839 26.7859C113.839 25.5544 114.062 24.4055 114.51 23.3391C114.957 22.2728 115.569 21.3418 116.344 20.5456C117.12 19.7497 118.045 19.1266 119.119 18.676C120.193 18.2254 121.341 18 122.564 18H125.281H131.29V18.0883L129.997 22.2804H126.536H122.564C121.222 22.2804 120.14 22.6933 119.32 23.5193C118.5 24.3453 118.089 25.4342 118.089 26.7859C118.089 27.807 118.462 28.6254 119.208 29.2413C119.954 29.857 120.879 30.3904 121.983 30.8407C123.086 31.2912 124.287 31.7418 125.585 32.1924C126.882 32.6429 128.083 33.1985 129.187 33.8594C130.291 34.5201 131.215 35.3538 131.961 36.3599C132.707 37.3663 133.08 38.6804 133.08 40.3023C133.08 41.5939 132.841 42.8029 132.364 43.9293C131.886 45.0555 131.238 46.0319 130.417 46.8579C129.597 47.6839 128.627 48.3372 127.509 48.8178C126.39 49.2983 125.189 49.5386 123.906 49.5386H114.286V49.3723L115.555 45.2585H123.906C125.368 45.2585 126.554 44.8003 127.464 43.8842C128.374 42.9681 128.829 41.7743 128.829 40.3023C128.829 39.281 128.456 38.4625 127.71 37.8468C126.964 37.231 126.039 36.698 124.936 36.2474C123.832 35.7968 122.631 35.3462 121.333 34.8956C120.036 34.4453 118.835 33.8895 117.731 33.2287C116.628 32.5678 115.703 31.7345 114.957 30.728C114.211 29.7219 113.839 28.4079 113.839 26.7859ZM79.1595 27.4617H83.1868C84.2906 27.4617 85.3122 27.6494 86.2519 28.0248C87.1917 28.4003 87.997 28.926 88.6684 29.6018C89.3395 30.2775 89.8617 31.0886 90.2345 32.0348C90.6074 32.981 90.7938 34.0096 90.7938 35.121V41.8793C90.7938 43.0208 90.6074 44.057 90.2345 44.988C89.8617 45.9193 89.3395 46.7225 88.6684 47.3985C87.997 48.0742 87.1917 48.6 86.2519 48.9754C85.3122 49.3508 84.2906 49.5386 83.1868 49.5386H75.1323V22.055H72V18H79.1595V27.4617ZM86.7666 35.121C86.7666 34.0997 86.4236 33.2438 85.7374 32.5529C85.0511 31.862 84.2011 31.5167 83.1868 31.5167H79.1595V45.4836H83.1868C84.2011 45.4836 85.0511 45.1383 85.7374 44.4474C86.4236 43.7565 86.7666 42.9005 86.7666 41.8793V35.121ZM106.903 27.4617H111.153L103.77 52.2418C103.084 54.4947 102.152 56.1842 100.974 57.3105C99.7954 58.4368 98.1918 59 96.1634 59H94.8208V54.9453H96.1634C97.1777 54.9453 97.9682 54.6898 98.535 54.1792C99.1016 53.6687 99.5044 53.0228 99.7431 52.2418L100.638 49.3134L94.5972 31.5167H91.6886V27.4617H97.5059L102.473 43.0056L106.903 27.4617ZM144.49 43.231L149.189 27.4617H153.44L146.728 49.5386H142.253L136.883 31.5167H133.975V27.4617H139.792L144.49 43.231ZM163.284 31.4716C162.15 31.4716 161.196 31.8319 160.42 32.5605C159.645 33.2888 159.257 34.1825 159.257 35.2485V36.9231H167.311V35.2485C167.311 34.1825 166.923 33.2888 166.148 32.5605C165.372 31.8319 164.418 31.4716 163.284 31.4716ZM155.229 35.3839C155.229 34.2275 155.431 33.1687 155.834 32.1924C156.236 31.2236 156.795 30.3828 157.512 29.6769C158.227 28.9635 159.078 28.4152 160.062 28.0172C161.047 27.6193 162.121 27.4167 163.284 27.4167C164.448 27.4167 165.521 27.6119 166.506 28.0099C167.49 28.4003 168.34 28.9485 169.056 29.6468C169.772 30.3453 170.332 31.1786 170.734 32.1397C171.137 33.1011 171.338 34.1523 171.338 35.2862V40.7529H159.257V41.8793C159.257 42.9005 159.6 43.7565 160.286 44.4474C160.972 45.1383 161.822 45.4836 162.836 45.4836H169.996V49.5386H162.836C161.703 49.5386 160.674 49.3509 159.749 48.983C158.824 48.6149 158.026 48.1044 157.355 47.4359C156.684 46.7752 156.162 45.9868 155.789 45.0708C155.416 44.1544 155.229 43.1409 155.229 42.0144V35.3839Z" fill="#8F1213"/>
<path fill-rule="evenodd" clip-rule="evenodd" d="M117.954 61.216H117.273V58.8372H114.679V61.216H114V56.07H114.679V58.2825H117.273V56.07H117.954V61.216ZM123.453 61.216V59.2125H122.265L121.201 61.216H120.477L121.671 59.0254C121.348 58.8976 121.102 58.7179 120.931 58.4837C120.761 58.251 120.675 57.9638 120.675 57.6225C120.675 57.3717 120.716 57.1509 120.8 56.959C120.884 56.7673 121.004 56.6055 121.162 56.4728C121.32 56.3416 121.511 56.2412 121.733 56.1726C121.956 56.1049 122.207 56.07 122.488 56.07H124.134V61.216H123.453ZM121.353 57.6225C121.353 57.7708 121.377 57.9071 121.424 58.0339C121.471 58.1594 121.541 58.2691 121.634 58.3618C121.727 58.4548 121.844 58.5271 121.983 58.579C122.121 58.6308 122.283 58.6575 122.466 58.6575H123.453V56.6284H122.488C122.3 56.6284 122.133 56.6514 121.991 56.6973C121.849 56.7432 121.73 56.8107 121.636 56.8974C121.542 56.9845 121.471 57.0894 121.424 57.2124C121.377 57.3343 121.353 57.4717 121.353 57.6225ZM130.752 59.5827C130.724 59.8265 130.665 60.0518 130.574 60.2593C130.483 60.4682 130.358 60.6491 130.198 60.801C130.037 60.953 129.842 61.0712 129.612 61.1582C129.38 61.2438 129.111 61.2872 128.802 61.2872C128.498 61.2872 128.222 61.2305 127.975 61.1171C127.727 61.0037 127.516 60.8433 127.34 60.6346C127.165 60.426 127.029 60.1763 126.933 59.8843C126.838 59.5912 126.791 59.2655 126.791 58.9047V58.3885C126.791 58.0279 126.839 57.7008 126.936 57.4077C127.032 57.1146 127.17 56.8637 127.349 56.6551C127.528 56.4465 127.745 56.286 128.001 56.1712C128.257 56.0567 128.544 56 128.861 56C129.152 56 129.409 56.0422 129.632 56.1267C129.856 56.2123 130.046 56.3305 130.203 56.4825C130.359 56.6347 130.483 56.8155 130.575 57.0267C130.667 57.2376 130.726 57.4706 130.752 57.7237H130.07C130.044 57.5454 130.005 57.3836 129.95 57.2402C129.896 57.0964 129.821 56.9734 129.726 56.8722C129.631 56.7707 129.511 56.6936 129.37 56.6395C129.229 56.5851 129.059 56.5587 128.861 56.5587C128.633 56.5587 128.432 56.6021 128.259 56.69C128.085 56.7792 127.941 56.9023 127.825 57.0616C127.708 57.2209 127.62 57.4125 127.561 57.6381C127.502 57.8626 127.473 58.111 127.473 58.3814V58.9047C127.473 59.1569 127.499 59.3934 127.552 59.6153C127.605 59.8361 127.686 60.0303 127.795 60.1967C127.902 60.362 128.041 60.4935 128.207 60.5887C128.375 60.684 128.573 60.7324 128.802 60.7324C129.018 60.7324 129.201 60.7058 129.35 60.6539C129.498 60.602 129.621 60.5272 129.719 60.4294C129.816 60.3319 129.892 60.2111 129.947 60.0688C130.001 59.9265 130.042 59.765 130.07 59.5827H130.752ZM136.186 58.8372H133.957V60.661H136.547V61.216H133.278V56.07H136.512V56.6284H133.957V58.2825H136.186V58.8372ZM139.868 56.07L141.549 60.269L143.232 56.07H144.112V61.216H143.434V59.2125L143.496 57.0497L141.808 61.216H141.288L139.603 57.0604L139.67 59.2125V61.216H138.991V56.07H139.868ZM152.486 59.5827C152.457 59.8265 152.398 60.0518 152.307 60.2593C152.217 60.4682 152.091 60.6491 151.931 60.801C151.771 60.953 151.575 61.0712 151.345 61.1582C151.113 61.2438 150.844 61.2872 150.535 61.2872C150.231 61.2872 149.955 61.2305 149.708 61.1171C149.46 61.0037 149.249 60.8433 149.073 60.6346C148.898 60.426 148.762 60.1763 148.667 59.8843C148.571 59.5912 148.524 59.2655 148.524 58.9047V58.3885C148.524 58.0279 148.572 57.7008 148.669 57.4077C148.766 57.1146 148.903 56.8637 149.083 56.6551C149.261 56.4465 149.478 56.286 149.734 56.1712C149.99 56.0567 150.277 56 150.594 56C150.885 56 151.142 56.0422 151.365 56.1267C151.589 56.2123 151.779 56.3305 151.936 56.4825C152.093 56.6347 152.217 56.8155 152.309 57.0267C152.4 57.2376 152.459 57.4706 152.486 57.7237H151.803C151.778 57.5454 151.738 57.3836 151.684 57.2402C151.629 57.0964 151.555 56.9734 151.459 56.8722C151.364 56.7707 151.244 56.6936 151.103 56.6395C150.962 56.5851 150.792 56.5587 150.594 56.5587C150.366 56.5587 150.165 56.6021 149.992 56.69C149.819 56.7792 149.674 56.9023 149.558 57.0616C149.441 57.2209 149.353 57.4125 149.294 57.6381C149.235 57.8626 149.206 58.111 149.206 58.3814V58.9047C149.206 59.1569 149.232 59.3934 149.285 59.6153C149.339 59.8361 149.419 60.0303 149.528 60.1967C149.635 60.362 149.774 60.4935 149.94 60.5887C150.108 60.684 150.306 60.7324 150.535 60.7324C150.751 60.7324 150.935 60.7058 151.083 60.6539C151.231 60.602 151.354 60.5272 151.452 60.4294C151.55 60.3319 151.626 60.2111 151.68 60.0688C151.734 59.9265 151.775 59.765 151.803 59.5827H152.486ZM155.011 61.216V56.07H156.694C156.957 56.07 157.193 56.0967 157.401 56.1497C157.607 56.2027 157.783 56.286 157.929 56.3968C158.074 56.5091 158.183 56.6514 158.261 56.8226C158.337 56.9952 158.375 57.2016 158.375 57.4417C158.375 57.6815 158.308 57.8952 158.17 58.0798C158.034 58.2643 157.848 58.4077 157.612 58.5092C157.756 58.5489 157.884 58.6082 157.995 58.6853C158.107 58.7638 158.201 58.8553 158.279 58.9614C158.355 59.0677 158.413 59.1859 158.454 59.3185C158.493 59.45 158.513 59.5875 158.513 59.7324C158.513 59.9725 158.473 60.1848 158.391 60.3693C158.31 60.555 158.196 60.7106 158.047 60.8362C157.899 60.9626 157.719 61.0567 157.509 61.1208C157.3 61.1846 157.066 61.216 156.809 61.216H155.011ZM155.69 58.8094V60.661H156.809C156.972 60.661 157.117 60.6395 157.243 60.5961C157.369 60.5524 157.475 60.4909 157.562 60.4116C157.65 60.333 157.717 60.2367 157.762 60.1219C157.808 60.0073 157.831 59.8806 157.831 59.7383C157.831 59.5972 157.812 59.4693 157.775 59.3537C157.737 59.2377 157.678 59.1399 157.596 59.0603C157.515 58.9795 157.411 58.918 157.287 58.8746C157.162 58.8312 157.013 58.8094 156.842 58.8094H155.69ZM155.69 58.2654H156.714C156.86 58.2654 156.994 58.2462 157.114 58.2088C157.234 58.1713 157.337 58.1172 157.423 58.046C157.509 57.9746 157.576 57.889 157.623 57.7867C157.67 57.6841 157.694 57.5681 157.694 57.438C157.694 57.1557 157.61 56.9493 157.446 56.8215C157.281 56.6925 157.03 56.6284 156.694 56.6284H155.69V58.2654ZM163.81 61.216V59.2125H162.622L161.558 61.216H160.834L162.028 59.0254C161.705 58.8976 161.459 58.7179 161.288 58.4837C161.117 58.251 161.032 57.9638 161.032 57.6225C161.032 57.3717 161.073 57.1509 161.157 56.959C161.241 56.7673 161.361 56.6055 161.519 56.4728C161.677 56.3416 161.868 56.2412 162.09 56.1726C162.313 56.1049 162.564 56.07 162.845 56.07H164.491V61.216H163.81ZM161.71 57.6225C161.71 57.7708 161.734 57.9071 161.781 58.0339C161.828 58.1594 161.898 58.2691 161.991 58.3618C162.084 58.4548 162.201 58.5271 162.34 58.579C162.478 58.6308 162.64 58.6575 162.823 58.6575H163.81V56.6284H162.845C162.657 56.6284 162.49 56.6514 162.348 56.6973C162.205 56.7432 162.087 56.8107 161.993 56.8974C161.899 56.9845 161.828 57.0894 161.781 57.2124C161.734 57.3343 161.71 57.4717 161.71 57.6225ZM170.805 56.6284H169.151V61.216H168.477V56.6284H166.827V56.07H170.805V56.6284ZM176.873 56.07V61.216H176.194V56.6284H174.357L174.297 58.4803C174.282 58.9494 174.246 59.3548 174.189 59.6986C174.131 60.0411 174.042 60.3245 173.922 60.5502C173.802 60.7744 173.645 60.9422 173.453 61.0519C173.262 61.1619 173.023 61.216 172.738 61.216H172.551V60.661H172.692C172.857 60.661 172.996 60.6213 173.11 60.5405C173.222 60.4609 173.314 60.3342 173.385 60.1604C173.456 59.9881 173.509 59.7624 173.545 59.4863C173.583 59.2088 173.608 58.8746 173.621 58.4803L173.703 56.07H176.873ZM183.66 58.8094C183.66 59.1955 183.612 59.5416 183.514 59.8469C183.417 60.1522 183.278 60.4116 183.099 60.6261C182.92 60.8396 182.702 61.0037 182.449 61.1171C182.194 61.2305 181.91 61.2872 181.596 61.2872C181.292 61.2872 181.014 61.2305 180.759 61.1171C180.504 61.0037 180.286 60.8396 180.102 60.6261C179.918 60.4116 179.776 60.1522 179.675 59.8469C179.573 59.5416 179.523 59.1955 179.523 58.8094V58.4837C179.523 58.1002 179.573 57.7541 179.675 57.4465C179.776 57.1401 179.917 56.8782 180.098 56.6647C180.28 56.4501 180.497 56.286 180.752 56.1712C181.006 56.0567 181.286 56 181.59 56C181.903 56 182.187 56.0567 182.443 56.1712C182.699 56.286 182.917 56.4501 183.097 56.6647C183.278 56.8782 183.417 57.1401 183.514 57.4465C183.612 57.7541 183.66 58.1002 183.66 58.4837V58.8094ZM182.986 58.4766C182.986 58.1713 182.954 57.9001 182.892 57.6648C182.829 57.4284 182.739 57.2305 182.618 57.0701C182.499 56.9108 182.352 56.7889 182.178 56.707C182.005 56.6236 181.809 56.5828 181.59 56.5828C181.38 56.5828 181.19 56.6236 181.017 56.707C180.845 56.7889 180.699 56.9108 180.577 57.0701C180.456 57.2305 180.362 57.4284 180.296 57.6648C180.231 57.9001 180.197 58.1713 180.197 58.4766V58.8094C180.197 59.1184 180.231 59.3897 180.298 59.6261C180.365 59.8614 180.46 60.0592 180.583 60.2208C180.705 60.3824 180.852 60.5042 181.025 60.5876C181.196 60.6695 181.387 60.7106 181.596 60.7106C181.818 60.7106 182.015 60.6695 182.187 60.5876C182.359 60.5042 182.505 60.3824 182.624 60.2208C182.742 60.0592 182.833 59.8614 182.894 59.6261C182.954 59.3897 182.986 59.1184 182.986 58.8094V58.4766ZM186.908 59.7636H186.317L186.271 56.07H186.957L186.908 59.7636ZM186.247 60.8881C186.247 60.7818 186.28 60.6925 186.343 60.6202C186.408 60.549 186.505 60.5128 186.632 60.5128C186.759 60.5128 186.856 60.549 186.921 60.6202C186.988 60.6925 187.02 60.7818 187.02 60.8881C187.02 60.9929 186.988 61.0808 186.921 61.1508C186.856 61.2197 186.759 61.2546 186.632 61.2546C186.505 61.2546 186.408 61.2197 186.343 61.1508C186.28 61.0808 186.247 60.9929 186.247 60.8881Z" fill="#8F1213" stroke="#8F1213" stroke-width="0.216"/>
</svg>
