<svg width="72" height="66" viewBox="0 0 72 66" fill="none" xmlns="http://www.w3.org/2000/svg">
<g clip-path="url(#clip0)">
<path d="M14.3696 56.8229L8.20702 55.8801L4.76453 50.7572L5.37368 8.83149L10.2896 5.65717L47.8737 5.45288L48.7237 10.0886L48.6529 13.5143L57.6487 13.483L61.7571 13.5458L65.6529 18.0243L65.8512 33.0786L71.2204 40.0715L71.1921 55.6915L67.1688 56.0529L65.1854 60.5158L62.1395 63.4229L57.5213 63.3601L52.9737 59.6986L52.0954 56.8073L43.2129 56.1472L27.1904 56.2729L27.162 59.4786L24.8954 62.4329L20.5462 64.1615L16.6362 61.9929L14.3696 56.8229Z" fill="white"/>
<path d="M53.8667 56.2571C53.8667 54.59 54.4637 52.9912 55.5264 51.8124C56.5891 50.6336 58.0304 49.9714 59.5333 49.9714C61.0362 49.9714 62.4776 50.6336 63.5403 51.8124C64.603 52.9912 65.2 54.59 65.2 56.2571C65.2 57.9241 64.603 59.523 63.5403 60.7018C62.4776 61.8806 61.0362 62.5428 59.5333 62.5428C58.0304 62.5428 56.5891 61.8806 55.5264 60.7018C54.4637 59.523 53.8667 57.9241 53.8667 56.2571ZM67.4242 33.0628L66.3333 18.5428C66.3333 16.8757 65.7363 15.2769 64.6736 14.0981C63.6109 12.9193 62.1695 12.2571 60.6666 12.2571H52.7333C52.4328 12.2571 52.1444 12.3895 51.9319 12.6253C51.7193 12.861 51.5999 13.1808 51.5999 13.5142C51.5999 13.8476 51.7193 14.1674 51.9319 14.4032C52.1444 14.639 52.4328 14.7714 52.7333 14.7714H60.6666C62.5083 14.7714 64.0667 16.4999 64.0667 18.6528L65.1008 32.3713H52.7333C52.4328 32.3713 52.1444 32.5038 51.9319 32.7395C51.7193 32.9753 51.5999 33.2951 51.5999 33.6286C51.5999 33.962 51.7193 34.2817 51.9319 34.5175C52.1444 34.7532 52.4328 34.8857 52.7333 34.8857H65.8658L68.9258 38.2957C69.5775 39.0028 69.7333 40.6528 69.7333 41.1714V42.4285H68.5999C68.2994 42.4285 68.0111 42.561 67.7986 42.7967C67.586 43.0325 67.4666 43.3522 67.4666 43.6856C67.4666 44.0191 67.586 44.3388 67.7986 44.5746C68.0111 44.8103 68.2994 44.9428 68.5999 44.9428H69.7333V55H67.3816C67.0951 52.798 66.0673 50.7981 64.5051 49.4028C62.9428 48.0075 60.9621 47.3203 58.9615 47.4797C56.961 47.639 55.0891 48.633 53.7226 50.2615C52.3561 51.89 51.5963 54.0323 51.5963 56.2571C51.5963 58.4819 52.3561 60.6241 53.7226 62.2527C55.0891 63.8812 56.961 64.8752 58.9615 65.0345C60.9621 65.1938 62.9428 64.5067 64.5051 63.1115C66.0673 61.7162 67.0951 59.7162 67.3816 57.5142H70.8667C71.1672 57.5142 71.4555 57.3818 71.668 57.146C71.8806 56.9102 72 56.5905 72 56.2571V41.1714C72 40.8571 71.9574 38.0913 70.5408 36.5042L67.4242 33.0628ZM15.3333 56.2571C15.3333 54.59 15.9303 52.9912 16.993 51.8124C18.0557 50.6336 19.4971 49.9714 21 49.9714C22.5029 49.9714 23.9442 50.6336 25.0069 51.8124C26.0696 52.9912 26.6666 54.59 26.6666 56.2571C26.6666 57.9241 26.0696 59.523 25.0069 60.7018C23.9442 61.8806 22.5029 62.5428 21 62.5428C19.4971 62.5428 18.0557 61.8806 16.993 60.7018C15.9303 59.523 15.3333 57.9241 15.3333 56.2571ZM9.66664 4.71423C8.16374 4.71423 6.7224 5.37647 5.65969 6.55527C4.59699 7.73407 3.99997 9.33287 3.99997 10.9999V51.2285C3.99997 54.7485 6.4933 57.5142 9.66664 57.5142C9.96721 57.5142 10.2555 57.3818 10.468 57.146C10.6805 56.9102 10.8 56.5905 10.8 56.2571C10.8 55.9237 10.6805 55.6039 10.468 55.3682C10.2555 55.1324 9.96721 55 9.66664 55C9.21856 55.0063 8.77392 54.913 8.35883 54.7257C7.94374 54.5384 7.56659 54.2609 7.24973 53.9094C6.93286 53.5579 6.68265 53.1397 6.51381 52.6793C6.34496 52.2188 6.26089 51.7255 6.2666 51.2285V10.9999C6.2666 9.9997 6.62481 9.04038 7.26244 8.3331C7.90006 7.62582 8.7649 7.22848 9.66664 7.22848H47.0667V42.4285H9.66664C9.36606 42.4285 9.07781 42.561 8.86526 42.7967C8.65272 43.0325 8.53332 43.3522 8.53332 43.6856C8.53332 44.0191 8.65272 44.3388 8.86526 44.5746C9.07781 44.8103 9.36606 44.9428 9.66664 44.9428H47.0667V55H28.8483C28.5617 52.798 27.5339 50.7981 25.9717 49.4028C24.4095 48.0075 22.4288 47.3203 20.4283 47.4797C18.4277 47.639 16.5558 48.633 15.1892 50.2615C13.8227 51.89 13.063 54.0323 13.063 56.2571C13.063 58.4819 13.8227 60.6241 15.1892 62.2527C16.5558 63.8812 18.4277 64.8752 20.4283 65.0345C22.4288 65.1938 24.4095 64.5067 25.9717 63.1115C27.5339 61.7162 28.5617 59.7162 28.8483 57.5142H48.2C48.5006 57.5142 48.7888 57.3818 49.0014 57.146C49.2139 56.9102 49.3333 56.5905 49.3333 56.2571V5.97136C49.3333 5.63794 49.2139 5.3182 49.0014 5.08244C48.7888 4.84668 48.5006 4.71423 48.2 4.71423H9.66664Z" fill="#727272"/>
<path d="M-0.25 6.28572C-0.25 4.61864 0.347018 3.01984 1.40972 1.84104C2.47243 0.662238 3.91377 0 5.41667 0H45.0833V40.8571H-0.25V6.28572ZM16.75 26.7143H23.8333L22.4167 37.7143L32.3333 18.8571H26.6667L32.3333 9.42857H22.4167L16.75 26.7143Z" fill="#FF8787"/>
<path d="M23.8334 11H33.7501L28.0834 20.4286H33.7501L23.8334 39.2857L25.2501 28.2857H18.1667L23.8334 11Z" stroke="#969696" stroke-width="3" stroke-miterlimit="50"/>
</g>
<defs>
<clipPath id="clip0">
<rect width="72" height="66" fill="white"/>
</clipPath>
</defs>
</svg>
