<svg width="70" height="70" viewBox="0 0 70 70" fill="none" xmlns="http://www.w3.org/2000/svg">
<g clip-path="url(#clip0)">
<path d="M59.1077 8.48391L46.7457 8.31592L34.9437 18.9279L23.9117 49.6579L23.6177 64.8759L28.1117 68.9499L33.1097 66.7799L35.8257 63.8399L41.3557 67.9839L44.8277 68.8939L49.0277 64.3719L62.9997 40.2639L66.9057 32.7179L69.0617 28.6579L69.7337 10.8779L59.1077 8.48391Z" fill="white"/>
<path d="M67.116 23.52C67.116 26.992 66.024 29.5819 63.434 32.1579L30.1559 65.478C29.6378 66.002 29.0207 66.418 28.3407 66.702C27.6606 66.9859 26.9309 67.1321 26.194 67.1321C25.457 67.1321 24.7273 66.9859 24.0472 66.702C23.3672 66.418 22.7502 66.002 22.232 65.478L1.65195 44.884C1.12622 44.3667 0.708686 43.75 0.423679 43.0698C0.138671 42.3896 -0.00809622 41.6595 -0.00809622 40.922C-0.00809622 40.1844 0.138671 39.4543 0.423679 38.7741C0.708686 38.0939 1.12622 37.4772 1.65195 36.96L30.744 7.896C32.55 6.076 34.524 4.116 34.958 3.696C36.0483 2.49626 37.3841 1.54519 38.8745 0.90745C40.365 0.269712 41.9753 -0.0397707 43.596 -2.08295e-05H61.516C63.0012 -2.08295e-05 64.4256 0.589973 65.4758 1.64018C66.526 2.69038 67.116 4.11477 67.116 5.59998V23.52ZM51.8 21C53.2852 21 54.7096 20.41 55.7598 19.3598C56.81 18.3096 57.4 16.8852 57.4 15.4C57.4 13.9148 56.81 12.4904 55.7598 11.4402C54.7096 10.39 53.2852 9.79998 51.8 9.79998C50.3147 9.79998 48.8904 10.39 47.8402 11.4402C46.7899 12.4904 46.2 13.9148 46.2 15.4C46.2 16.8852 46.7899 18.3096 47.8402 19.3598C48.8904 20.41 50.3147 21 51.8 21Z" fill="#FADC73"/>
<path d="M69.916 8.4V26.32C69.916 29.792 68.824 32.382 66.234 34.958L32.9559 68.278C32.4378 68.8021 31.8208 69.2181 31.1407 69.502C30.4606 69.7859 29.7309 69.9322 28.994 69.9322C28.257 69.9322 27.5273 69.7859 26.8472 69.502C26.1672 69.2181 25.5502 68.8021 25.032 68.278L4.45195 47.684C3.92622 47.1668 3.50869 46.55 3.22368 45.8698C2.93867 45.1896 2.7919 44.4595 2.7919 43.722C2.7919 42.9845 2.93867 42.2543 3.22368 41.5741C3.50869 40.8939 3.92622 40.2773 4.45195 39.76L33.544 10.696C25.928 8.97402 21.21 8.84798 19.824 9.25398C20.412 9.85598 22.232 11.13 26.614 12.852C26.7518 12.9062 26.8777 12.9871 26.9843 13.09C27.091 13.1928 27.1763 13.3157 27.2355 13.4516C27.2946 13.5874 27.3264 13.7336 27.3291 13.8817C27.3317 14.0299 27.3052 14.1771 27.251 14.315C27.1967 14.4529 27.1159 14.5788 27.013 14.6854C26.9101 14.792 26.7872 14.8774 26.6514 14.9365C26.5155 14.9957 26.3694 15.0274 26.2212 15.0301C26.0731 15.0328 25.9258 15.0062 25.788 14.952C16.716 11.354 17.248 9.37997 17.444 8.62397C17.864 7.06997 20.076 6.55203 24.626 6.94403C29.1742 7.42871 33.6743 8.29029 38.08 9.51999C41.342 10.388 57.498 14.938 56.406 19.068C55.9859 20.566 53.9 20.748 53.214 20.818H53.116C52.8189 20.831 52.5289 20.7255 52.3096 20.5246C52.0904 20.3238 51.9599 20.044 51.947 19.747C51.934 19.4499 52.0395 19.1599 52.2403 18.9407C52.4412 18.7214 52.7209 18.591 53.018 18.578C53.494 18.536 53.816 18.48 54.012 18.41C53.536 17.92 52.332 17.136 50.372 16.198C49.8687 17.0482 49.6607 18.0408 49.78 19.0214C49.8994 20.0021 50.3396 20.9158 51.0321 21.6204C51.7246 22.3249 52.6306 22.7808 53.6091 22.9171C54.5875 23.0534 55.5836 22.8625 56.4423 22.374C57.301 21.8856 57.9742 21.127 58.3571 20.2163C58.7399 19.3056 58.8111 18.2939 58.5594 17.3386C58.3077 16.3833 57.7473 15.5379 56.9653 14.9341C56.1834 14.3303 55.2239 14.0019 54.236 14C53.9389 14 53.654 13.882 53.444 13.672C53.234 13.4619 53.116 13.1771 53.116 12.88C53.116 12.583 53.234 12.2981 53.444 12.0881C53.654 11.878 53.9389 11.76 54.236 11.76C55.7079 11.7558 57.1404 12.2349 58.3136 13.1237C59.4869 14.0126 60.3358 15.2621 60.73 16.6802C61.1242 18.0983 61.0419 19.6066 60.4957 20.9734C59.9496 22.3403 58.9698 23.49 57.7069 24.246C56.4439 25.0019 54.9677 25.3223 53.505 25.158C52.0423 24.9936 50.6741 24.3535 49.6104 23.3361C48.5468 22.3187 47.8466 20.9801 47.6174 19.5262C47.3883 18.0722 47.6428 16.5832 48.342 15.288C44.8149 13.8427 41.1948 12.6361 37.506 11.676L36.1059 11.312L6.01996 41.342C5.70333 41.6523 5.45178 42.0225 5.28006 42.4312C5.10833 42.8399 5.01986 43.2787 5.01986 43.722C5.01986 44.1653 5.10833 44.6041 5.28006 45.0128C5.45178 45.4214 5.70333 45.7918 6.01996 46.102L26.628 66.696C27.888 67.956 30.1 67.956 31.388 66.696L64.652 33.376C65.6423 32.4965 66.4268 31.4094 66.9494 30.1923C67.4721 28.9752 67.7201 27.6579 67.676 26.334V8.4C67.6778 7.95759 67.5923 7.51916 67.4242 7.10989C67.2562 6.70062 67.009 6.32852 66.6968 6.01503C66.3846 5.70154 66.0136 5.4528 65.605 5.28307C65.1964 5.11334 64.7584 5.02604 64.316 5.02604H46.396C43.498 5.02604 41.524 5.86602 39.34 8.06402C39.2381 8.17645 39.1144 8.267 38.9765 8.33019C38.8386 8.39339 38.6892 8.42789 38.5376 8.43162C38.3859 8.43535 38.235 8.40823 38.0941 8.3519C37.9533 8.29556 37.8253 8.21121 37.718 8.10392C37.6108 7.99664 37.5264 7.86865 37.47 7.72777C37.4137 7.5869 37.3866 7.43605 37.3903 7.28438C37.394 7.1327 37.4286 6.98336 37.4918 6.84543C37.555 6.70749 37.6455 6.58388 37.758 6.48201C38.8483 5.28227 40.1841 4.3312 41.6745 3.69346C43.165 3.05572 44.7753 2.74624 46.396 2.78599H64.316C65.8012 2.78599 67.2256 3.37598 68.2758 4.42619C69.326 5.47639 69.916 6.90078 69.916 8.38599V8.4ZM60.928 43.764C61.46 44.072 61.642 44.758 61.334 45.304L48.496 67.2C48.1266 67.8363 47.6355 68.3936 47.0507 68.84C46.4659 69.2865 45.7988 69.6133 45.0876 69.8018C44.3764 69.9904 43.635 70.0369 42.9059 69.9388C42.1767 69.8407 41.474 69.5998 40.838 69.23L38.29 67.592C38.0393 67.4305 37.8631 67.176 37.8001 66.8846C37.7371 66.5932 37.7924 66.2886 37.954 66.038C38.1155 65.7873 38.3699 65.6112 38.6614 65.5482C38.9528 65.4852 39.2573 65.5405 39.508 65.702L42.014 67.326C42.7844 67.7522 43.6912 67.8589 44.5395 67.6232C45.3878 67.3876 46.1097 66.8284 46.55 66.066L59.402 44.156C59.477 44.0288 59.5764 43.9177 59.6946 43.829C59.8127 43.7404 59.9473 43.676 60.0904 43.6396C60.2335 43.6032 60.3825 43.5953 60.5286 43.6167C60.6747 43.6381 60.8152 43.6882 60.942 43.764H60.928ZM29.582 35.28C29.582 35.1329 29.6109 34.9873 29.6672 34.8514C29.7235 34.7155 29.806 34.5921 29.91 34.4881C30.014 34.3841 30.1375 34.3015 30.2734 34.2452C30.4092 34.1889 30.5549 34.16 30.7019 34.16C30.849 34.16 30.9947 34.1889 31.1306 34.2452C31.2664 34.3015 31.3899 34.3841 31.4939 34.4881C31.5979 34.5921 31.6804 34.7155 31.7367 34.8514C31.793 34.9873 31.822 35.1329 31.822 35.28V50.96C31.822 51.1071 31.793 51.2528 31.7367 51.3886C31.6804 51.5245 31.5979 51.648 31.4939 51.752C31.3899 51.856 31.2664 51.9385 31.1306 51.9947C30.9947 52.051 30.849 52.08 30.7019 52.08C30.5549 52.08 30.4092 52.051 30.2734 51.9947C30.1375 51.9385 30.014 51.856 29.91 51.752C29.806 51.648 29.7235 51.5245 29.6672 51.3886C29.6109 51.2528 29.582 51.1071 29.582 50.96V35.28ZM36.3019 38.64C36.3019 38.044 36.5387 37.4725 36.9601 37.0511C37.3815 36.6297 37.953 36.393 38.549 36.393C39.1449 36.393 39.7164 36.6297 40.1378 37.0511C40.5592 37.4725 40.796 38.044 40.796 38.64C40.796 39.2341 40.56 39.8039 40.1399 40.2239C39.7198 40.644 39.15 40.88 38.5559 40.88C37.9619 40.88 37.3921 40.644 36.972 40.2239C36.552 39.8039 36.316 39.2341 36.316 38.64H36.3019ZM20.636 45.36C20.636 45.0659 20.6939 44.7746 20.8065 44.5028C20.919 44.231 21.084 43.9841 21.292 43.7761C21.5 43.5681 21.747 43.4031 22.0187 43.2905C22.2905 43.178 22.5818 43.12 22.876 43.12C23.1701 43.12 23.4614 43.178 23.7332 43.2905C24.0049 43.4031 24.2519 43.5681 24.4599 43.7761C24.6679 43.9841 24.8329 44.231 24.9454 44.5028C25.058 44.7746 25.116 45.0659 25.116 45.36C25.116 45.9541 24.88 46.5238 24.4599 46.9439C24.0398 47.364 23.47 47.6 22.876 47.6C22.2819 47.6 21.7121 47.364 21.292 46.9439C20.872 46.5238 20.636 45.9541 20.636 45.36Z" fill="#727272"/>
</g>
<defs>
<clipPath id="clip0">
<rect width="70" height="70" fill="white"/>
</clipPath>
</defs>
</svg>
