<svg width="72" height="68" viewBox="0 0 72 68" fill="none" xmlns="http://www.w3.org/2000/svg">
<g clip-path="url(#clip0)">
<path d="M25.2721 0H51.8401L36.6481 22.6715H51.8401L25.2721 68L29.0593 41.5523H10.0801L25.2721 0Z" fill="#FF8787"/>
<path d="M37.0655 18.3456V28.0682L36.8063 30.7013L35.2511 32.8426L10.8719 32.9294L5.61592 30.3685L1.45435 23.5397L2.00155 17.2171L6.07673 11.9797L11.0735 9.54895L33.1919 9.70817L36.0863 11.097L37.0655 18.3456Z" fill="white"/>
<path d="M19.6707 9.37524L33.9267 9.70807L37.1379 12.8766L36.7203 30.5855L34.3299 32.6689L11.2899 32.7702L19.6707 9.37524ZM10.1235 32.9583L20.7651 32.9149L18.0291 47.4408L17.3523 50.9855L19.5555 54.9642V58.5812H5.44349L3.5571 53.228L10.1235 32.9583ZM47.5203 15.857C48.6003 16.971 47.9235 19.5319 47.9235 19.5319L47.5203 26.2306L45.7923 28.3285L42.5811 28.1838C42.5811 28.1838 41.3571 17.8536 42.5811 15.857C43.2435 14.8008 46.2819 14.5838 47.5203 15.857Z" fill="white"/>
<path d="M21.3266 47.4119H23.933C24.653 43.4187 25.805 39.0204 26.4098 37.0817H23.7314C23.069 39.2519 21.989 43.6213 21.3266 47.4119Z" fill="#727272"/>
<path d="M48.8307 20.2987V16.4212L46.2675 13.8459H41.1123V29.3268H46.2675C46.5123 29.3268 48.8307 26.7515 48.8307 26.7515V22.874H72.0003V20.2987H48.8307ZM46.2675 25.7532L45.3171 26.7659H43.6755V16.4212H45.2019L46.2675 17.4919V25.7532Z" fill="#727272"/>
<path d="M33.3793 8.68093C36.2305 8.68093 38.5202 10.9958 38.5346 13.8461V29.3269C38.5346 32.1916 36.2305 34.492 33.3937 34.492H21.6289C20.5489 38.0222 19.2242 43.1729 18.461 48.772C18.173 50.9712 19.0369 52.2877 20.4193 53.6911C21.1969 54.4724 21.6433 55.572 21.5425 56.7584C21.3697 58.8128 19.469 60.303 17.4242 60.303H7.68974C6.96523 60.299 6.24961 60.1425 5.58902 59.8435C4.92844 59.5445 4.33758 59.1096 3.85455 58.567C3.37152 58.0245 3.00705 57.3863 2.78465 56.6934C2.56226 56.0006 2.48686 55.2687 2.56335 54.5448C3.55695 44.0265 6.98414 36.9226 8.81294 33.783C5.90194 32.8391 3.42356 30.8791 1.82656 28.2579C0.229559 25.6367 -0.380497 22.5275 0.106847 19.4934C0.59419 16.4593 2.14675 13.7009 4.48336 11.7175C6.81997 9.73413 9.78619 8.65693 12.845 8.68093H33.3793ZM15.9121 48.4247C16.572 43.711 17.5828 39.0538 18.9361 34.492H12.845C12.3698 34.492 11.9233 34.4052 11.4625 34.3473C9.99373 36.7056 6.16334 43.7516 5.12654 54.7907C5.0891 55.1684 5.1299 55.5498 5.24638 55.9109C5.36286 56.2719 5.5525 56.6048 5.80334 56.8886C6.29294 57.4239 6.95533 57.7278 7.67533 57.7278H17.4097C18.2161 57.7278 18.9217 57.1925 18.9793 56.5559C18.9958 56.3675 18.9708 56.1778 18.9061 56.0002C18.8414 55.8227 18.7386 55.6617 18.605 55.5286C17.021 53.9371 15.4369 51.8247 15.9121 48.4247ZM35.9714 13.8461C35.9714 12.4137 34.8194 11.2563 33.4082 11.2563H12.8737C10.1469 11.2563 7.53174 12.3446 5.60357 14.2819C3.6754 16.2192 2.59213 18.8467 2.59213 21.5864C2.59213 24.3262 3.6754 26.9538 5.60357 28.891C7.53174 30.8283 10.1469 31.9167 12.8737 31.9167H33.4082C34.8194 31.9167 35.9714 30.7593 35.9714 29.3269V13.8461Z" fill="#727272"/>
</g>
<defs>
<clipPath id="clip0">
<rect width="72" height="68" fill="white"/>
</clipPath>
</defs>
</svg>
