<svg width="66" height="70" viewBox="0 0 66 70" fill="none" xmlns="http://www.w3.org/2000/svg">
<path d="M10.8535 19.6584L5.52953 18.3896L2.09749 14.4521L0.836182 10.4272L2.20017 5.6146L8.31615 1.38548L10.6921 0.481323L56.9801 0.773008L62.8468 5.04591L64.6948 9.80001L64.3135 61.5125L61.4681 63.6417L60.8815 65.8292L57.6401 67.6084L52.3602 58.9313L45.9948 67.4918L41.4041 65.7855L41.8002 64.225L14.2708 64.05L10.2375 61.0313L10.8535 19.6584Z" fill="white"/>
<path d="M44 51.7709C44 50.0304 44.6953 48.3612 45.9331 47.1304C47.1708 45.8997 48.8496 45.2084 50.6 45.2084C52.3504 45.2084 54.0292 45.8997 55.2669 47.1304C56.5047 48.3612 57.2 50.0304 57.2 51.7709C57.2 53.5114 56.5047 55.1806 55.2669 56.4113C54.0292 57.642 52.3504 58.3334 50.6 58.3334C48.8496 58.3334 47.1708 57.642 45.9331 56.4113C44.6953 55.1806 44 53.5114 44 51.7709Z" fill="#FADC73"/>
<path d="M15.2534 62.9708C14.3198 62.9708 13.4244 62.6021 12.7643 61.9457C12.1042 61.2893 11.7333 60.3991 11.7333 59.4709V5.80414C11.7333 5.49472 11.6097 5.19799 11.3897 4.9792C11.1696 4.7604 10.8712 4.63749 10.56 4.63749C9.00408 4.63749 7.51187 5.25207 6.41165 6.34603C5.31144 7.43999 4.69335 8.92373 4.69335 10.4708C4.69335 10.7802 4.81697 11.077 5.03701 11.2958C5.25705 11.5146 5.55548 11.6375 5.86667 11.6375C6.17785 11.6375 6.47628 11.5146 6.69632 11.2958C6.91636 11.077 7.03998 10.7802 7.03998 10.4708C7.04081 9.74772 7.2669 9.04261 7.68711 8.45244C8.10732 7.86227 8.70106 7.41601 9.3867 7.17497V59.4709C9.3867 61.018 10.0048 62.5016 11.105 63.5956C12.2052 64.6895 13.6974 65.3042 15.2534 65.3042H37.5466C37.8578 65.3042 38.1563 65.1813 38.3764 64.9625C38.5964 64.7437 38.72 64.4469 38.72 64.1375C38.72 63.828 38.5964 63.5313 38.3764 63.3125C38.1563 63.0937 37.8578 62.9708 37.5466 62.9708H15.2534ZM21.648 54.6875C21.7874 54.6193 21.9117 54.5243 22.0139 54.4079C22.116 54.2916 22.1938 54.1562 22.243 54.0097C22.2921 53.8632 22.3115 53.7084 22.3 53.5544C22.2885 53.4004 22.2463 53.2502 22.176 53.1125C21.0027 50.8083 20.7534 48.7375 21.472 47.5708C21.8534 46.9583 22.528 46.6375 23.4667 46.6375C24.024 46.6375 24.2293 46.8271 24.3613 47.0167C25.2413 48.2708 24.4053 52.0916 23.54 54.3958C23.4396 54.6471 23.4301 54.9253 23.5131 55.1827C23.5962 55.4402 23.7665 55.661 23.9952 55.8074C24.2238 55.9538 24.4965 56.0167 24.7667 55.9853C25.0368 55.954 25.2875 55.8303 25.476 55.6354C25.9747 55.1396 26.5027 54.6437 26.9867 54.2354V54.8188C26.9871 55.0501 27.0566 55.2761 27.1865 55.468C27.3164 55.66 27.5006 55.8092 27.716 55.8967C27.9314 55.9842 28.1681 56.0062 28.396 55.9596C28.6239 55.9131 28.8328 55.8003 28.996 55.6354C29.5165 55.118 30.0754 54.6402 30.668 54.2062C30.668 54.2354 30.6387 54.2645 30.624 54.2791C30.5335 54.4576 30.4908 54.6562 30.4997 54.8559C30.5086 55.0556 30.5688 55.2496 30.6749 55.4194C30.7809 55.5892 30.929 55.7291 31.105 55.8257C31.281 55.9222 31.479 55.9722 31.68 55.9708H36.3733C36.6845 55.9708 36.9829 55.8479 37.203 55.6291C37.423 55.4103 37.5466 55.1136 37.5466 54.8042C37.5466 54.4948 37.423 54.198 37.203 53.9792C36.9829 53.7605 36.6845 53.6375 36.3733 53.6375H33.3226C33.4106 53.0834 33.396 52.5146 33.1027 52.0625C32.8093 51.5813 32.2813 51.3042 31.68 51.3042C30.9466 51.3042 30.096 51.7416 29.3333 52.2958C29.3112 52.0503 29.2214 51.8157 29.0739 51.6176C28.9264 51.4196 28.727 51.2657 28.4973 51.173C28.1893 51.0417 27.7787 50.8812 26.8107 51.4646C27.192 49.452 27.3093 47.1334 26.2973 45.6896C25.8573 45.0625 25.0067 44.3042 23.4667 44.3042C21.7067 44.3042 20.284 45.0334 19.4774 46.3459C18.304 48.2417 18.524 51.0709 20.064 54.1625C20.3573 54.7459 21.0613 54.9646 21.648 54.6875ZM47.9013 62.2417L45.3787 66.5875L44.9826 65.9896C44.8826 65.8378 44.7483 65.7112 44.5905 65.6201C44.4326 65.529 44.2555 65.4757 44.0733 65.4646L43.34 65.4208L45.9067 61.0021C46.0344 60.7373 46.057 60.4344 45.9699 60.1538C45.8829 59.8731 45.6927 59.6355 45.4372 59.4882C45.1817 59.341 44.8797 59.2949 44.5915 59.3593C44.3034 59.4236 44.0503 59.5937 43.8826 59.8355L40.3627 65.8875C40.262 66.0603 40.2075 66.2559 40.2046 66.4556C40.2017 66.6553 40.2505 66.8525 40.3461 67.0281C40.4418 67.2038 40.5812 67.352 40.751 67.4587C40.9208 67.5654 41.1154 67.627 41.316 67.6375L43.34 67.7542L44.4693 69.4458C44.6893 69.7812 45.056 69.9708 45.452 69.9708H45.4813C45.6816 69.9651 45.8771 69.9085 46.0491 69.8064C46.2211 69.7043 46.3639 69.5601 46.464 69.3875L49.94 63.4083C50.0956 63.1395 50.1374 62.8203 50.0563 62.5208C49.9751 62.2213 49.7777 61.9662 49.5073 61.8115C49.237 61.6568 48.9159 61.6152 48.6148 61.6958C48.3136 61.7765 48.0569 61.9728 47.9013 62.2417ZM57.8013 59.4709C57.5311 59.6238 57.3331 59.8771 57.2506 60.1751C57.1681 60.4732 57.2079 60.7915 57.3613 61.0604L59.9133 65.4208L59.18 65.4646C58.9978 65.4757 58.8208 65.529 58.6629 65.6201C58.505 65.7112 58.3707 65.8378 58.2706 65.9896L57.8747 66.5875L55.3667 62.2562C55.2111 61.9874 54.9545 61.7911 54.6533 61.7104C54.3521 61.6298 54.0311 61.6714 53.7607 61.8261C53.4904 61.9808 53.2928 62.2359 53.2117 62.5354C53.1306 62.8349 53.1724 63.1541 53.328 63.4229L56.7893 69.4021C56.9946 69.7375 57.376 69.9562 57.772 69.9854H57.816C58.0096 69.9819 58.1993 69.9307 58.3682 69.8366C58.5371 69.7424 58.68 69.6082 58.784 69.4458L59.9133 67.7542L61.9373 67.6375C62.1379 67.627 62.3324 67.5654 62.5023 67.4587C62.6721 67.352 62.8115 67.2038 62.9071 67.0281C63.0028 66.8525 63.0516 66.6553 63.0487 66.4556C63.0458 66.2559 62.9914 66.0603 62.8907 65.8875L59.4 59.8938C59.2462 59.6251 58.9915 59.4282 58.6917 59.3462C58.392 59.2641 58.0717 59.3037 57.8013 59.4563V59.4709ZM56.32 53.6375C56.32 54.8752 55.8256 56.0621 54.9454 56.9373C54.0652 57.8125 52.8714 58.3041 51.6267 58.3041C50.3819 58.3041 49.1881 57.8125 48.308 56.9373C47.4278 56.0621 46.9333 54.8752 46.9333 53.6375C46.9333 52.3999 47.4278 51.2129 48.308 50.3377C49.1881 49.4625 50.3819 48.9709 51.6267 48.9709C52.8714 48.9709 54.0652 49.4625 54.9454 50.3377C55.8256 51.2129 56.32 52.3999 56.32 53.6375ZM51.6267 60.6375C52.5512 60.6366 53.4664 60.4545 54.3202 60.1019C55.174 59.7492 55.9495 59.2328 56.6026 58.5821C57.2556 57.9314 57.7733 57.1592 58.1262 56.3095C58.4791 55.4599 58.6603 54.5495 58.6593 53.6302C58.6584 52.711 58.4753 51.8009 58.1206 50.9519C57.7659 50.103 57.2466 49.3319 56.5922 48.6826C55.9378 48.0332 55.1612 47.5184 54.3067 47.1675C53.4522 46.8166 52.5365 46.6365 51.612 46.6375C49.7449 46.6394 47.955 47.3788 46.6361 48.6929C45.3173 50.007 44.5774 51.7882 44.5794 53.6447C44.5813 55.5013 45.3249 57.2811 46.6465 58.5924C47.9682 59.9038 49.7596 60.6395 51.6267 60.6375ZM49.28 39.6375C50.5706 39.6375 51.6267 39.1125 51.6267 38.4708C51.6267 37.8292 50.5706 37.3042 49.28 37.3042H21.12C19.8294 37.3042 18.7733 37.8292 18.7733 38.4708C18.7733 39.1125 19.8294 39.6375 21.12 39.6375H49.28ZM36.3733 25.6375C36.6845 25.6375 36.9829 25.5146 37.203 25.2958C37.423 25.077 37.5466 24.7803 37.5466 24.4709C37.5466 24.1615 37.423 23.8646 37.203 23.6458C36.9829 23.4271 36.6845 23.3041 36.3733 23.3041H19.9466C19.6354 23.3041 19.337 23.4271 19.117 23.6458C18.8969 23.8646 18.7733 24.1615 18.7733 24.4709C18.7733 24.7803 18.8969 25.077 19.117 25.2958C19.337 25.5146 19.6354 25.6375 19.9466 25.6375H36.3733ZM30.5066 31.4709C30.5066 32.1125 31.0346 32.6375 31.68 32.6375H43.4133C43.7245 32.6375 44.023 32.5146 44.243 32.2958C44.4631 32.077 44.5867 31.7803 44.5867 31.4709C44.5867 31.1614 44.4631 30.8647 44.243 30.6459C44.023 30.4271 43.7245 30.3042 43.4133 30.3042H31.68C31.3688 30.3042 31.0704 30.4271 30.8503 30.6459C30.6303 30.8647 30.5066 31.1614 30.5066 31.4709ZM41.0667 25.6375H52.8C53.1112 25.6375 53.4096 25.5146 53.6297 25.2958C53.8497 25.077 53.9733 24.7803 53.9733 24.4709C53.9733 24.1615 53.8497 23.8646 53.6297 23.6458C53.4096 23.4271 53.1112 23.3041 52.8 23.3041H41.0667C40.7555 23.3041 40.4571 23.4271 40.237 23.6458C40.017 23.8646 39.8934 24.1615 39.8934 24.4709C39.8934 24.7803 40.017 25.077 40.237 25.2958C40.4571 25.5146 40.7555 25.6375 41.0667 25.6375ZM48.1067 32.6375H55.1466C55.4578 32.6375 55.7563 32.5146 55.9764 32.2958C56.1964 32.077 56.32 31.7803 56.32 31.4709C56.32 31.1614 56.1964 30.8647 55.9764 30.6459C55.7563 30.4271 55.4578 30.3042 55.1466 30.3042H48.1067C47.7955 30.3042 47.497 30.4271 47.277 30.6459C47.057 30.8647 46.9333 31.1614 46.9333 31.4709C46.9333 31.7803 47.057 32.077 47.277 32.2958C47.497 32.5146 47.7955 32.6375 48.1067 32.6375ZM26.9867 32.6375C27.2979 32.6375 27.5963 32.5146 27.8164 32.2958C28.0364 32.077 28.16 31.7803 28.16 31.4709C28.16 31.1614 28.0364 30.8647 27.8164 30.6459C27.5963 30.4271 27.2979 30.3042 26.9867 30.3042H19.9466C19.6354 30.3042 19.337 30.4271 19.117 30.6459C18.8969 30.8647 18.7733 31.1614 18.7733 31.4709C18.7733 31.7803 18.8969 32.077 19.117 32.2958C19.337 32.5146 19.6354 32.6375 19.9466 32.6375H26.9867ZM45.1733 18.6375C45.4845 18.6375 45.7829 18.5146 46.003 18.2958C46.223 18.077 46.3466 17.7802 46.3466 17.4708C46.3466 17.1614 46.223 16.8647 46.003 16.6459C45.7829 16.4271 45.4845 16.3042 45.1733 16.3042H19.9466C19.6354 16.3042 19.337 16.4271 19.117 16.6459C18.8969 16.8647 18.7733 17.1614 18.7733 17.4708C18.7733 17.7802 18.8969 18.077 19.117 18.2958C19.337 18.5146 19.6354 18.6375 19.9466 18.6375H45.1733ZM65.7066 10.5C65.7066 9.12114 65.4336 7.75578 64.9029 6.48186C64.3722 5.20794 63.5943 4.05039 62.6137 3.07537C61.6331 2.10036 60.469 1.32698 59.1878 0.799306C57.9066 0.271632 56.5334 3.96412e-10 55.1466 3.96412e-10H10.56C7.76694 -2.41074e-05 5.08756 1.1002 3.10843 3.05988C1.12931 5.01956 0.0116378 7.67904 0 10.4562V10.5146C0.0134644 12.3481 0.507512 14.1464 1.43346 15.732C2.3594 17.3176 3.68519 18.6357 5.27996 19.5562C5.54625 19.6832 5.85094 19.7058 6.13316 19.6192C6.41538 19.5327 6.65437 19.3435 6.80249 19.0894C6.95061 18.8354 6.99693 18.5352 6.9322 18.2487C6.86748 17.9621 6.69653 17.7105 6.45337 17.5438C4.90179 16.6387 3.69191 15.2521 3.00969 13.597C2.32748 11.942 2.21063 10.1099 2.67704 8.38239C3.14345 6.65488 4.16737 5.12744 5.59149 4.03463C7.0156 2.94181 8.76115 2.34408 10.56 2.3333H55.1466C56.2252 2.3333 57.2933 2.54453 58.2898 2.95494C59.2863 3.36535 60.1917 3.96691 60.9544 4.72525C61.7171 5.4836 62.3221 6.38389 62.7348 7.37471C63.1476 8.36554 63.36 9.42756 63.36 10.5V59.5C63.36 60.0833 63.1987 60.6812 62.876 61.2208C62.7483 61.4856 62.7257 61.7885 62.8127 62.0692C62.8997 62.3498 63.09 62.5874 63.3455 62.7347C63.601 62.882 63.903 62.928 64.1911 62.8637C64.4793 62.7993 64.7324 62.6293 64.9 62.3875C65.428 61.5125 65.7066 60.5062 65.7066 59.5V10.5Z" fill="#727272"/>
</svg>
