<svg xmlns="http://www.w3.org/2000/svg" xmlns:xlink="http://www.w3.org/1999/xlink" width="0" height="0" style="position:absolute">
	
		<symbol id="alert-attention" viewBox="0 0 286.054 286.054">
			<path d="M143.027 0C64.04 0 0 64.04 0 143.027c0 78.996 64.04 143.027 143.027 143.027 78.996 0 143.027-64.022 143.027-143.027C286.054 64.04 222.022 0 143.027 0zm0 259.236c-64.183 0-116.209-52.026-116.209-116.209S78.844 26.818 143.027 26.818s116.209 52.026 116.209 116.209-52.026 116.209-116.209 116.209zm.009-196.51c-10.244 0-17.995 5.346-17.995 13.981v79.201c0 8.644 7.75 13.972 17.995 13.972 9.994 0 17.995-5.551 17.995-13.972V76.707c-.001-8.43-8.001-13.981-17.995-13.981zm0 124.997c-9.842 0-17.852 8.01-17.852 17.86 0 9.833 8.01 17.843 17.852 17.843s17.843-8.01 17.843-17.843c-.001-9.851-8.001-17.86-17.843-17.86z" fill="#ffe03f"></path>
		</symbol>
	
		<symbol id="alert-info" viewBox="0 0 330 330">
			<g fill="#e5e5e5"><path d="M165 0C74.019 0 0 74.02 0 165.001 0 255.982 74.019 330 165 330s165-74.018 165-164.999S255.981 0 165 0zm0 300c-74.44 0-135-60.56-135-134.999S90.56 30 165 30s135 60.562 135 135.001C300 239.44 239.439 300 165 300z"></path><path d="M164.998 70c-11.026 0-19.996 8.976-19.996 20.009 0 11.023 8.97 19.991 19.996 19.991 11.026 0 19.996-8.968 19.996-19.991 0-11.033-8.97-20.009-19.996-20.009zM165 140c-8.284 0-15 6.716-15 15v90c0 8.284 6.716 15 15 15 8.284 0 15-6.716 15-15v-90c0-8.284-6.716-15-15-15z"></path></g>
		</symbol>
	
		<symbol id="alert-invalid" viewBox="0 0 286.054 286.054">
			<path d="M168.352 142.924l25.28-25.28c3.495-3.504 3.495-9.154 0-12.64l-12.64-12.649c-3.495-3.486-9.145-3.495-12.64 0l-25.289 25.289-25.271-25.271c-3.504-3.504-9.163-3.504-12.658-.018l-12.64 12.649c-3.495 3.486-3.486 9.154.018 12.649l25.271 25.271-25.227 25.226a8.93 8.93 0 0 0 0 12.64l12.64 12.649c3.495 3.486 9.145 3.495 12.64 0l25.226-25.226 25.405 25.414c3.504 3.504 9.163 3.504 12.658.009l12.64-12.64c3.495-3.495 3.486-9.154-.009-12.658l-25.404-25.414zM143.027.004C64.031.004 0 64.036 0 143.022c0 78.996 64.031 143.027 143.027 143.027s143.027-64.031 143.027-143.027C286.054 64.045 222.022.004 143.027.004zm0 259.228c-64.183 0-116.209-52.026-116.209-116.209s52.026-116.21 116.209-116.21 116.209 52.026 116.209 116.209-52.026 116.21-116.209 116.21z" fill="#e2574c"></path>
		</symbol>
	
		<symbol id="alert-valid" viewBox="0 0 286.054 286.054">
			<path d="M143.031 0C64.027 0 .004 64.04.004 143.027c0 78.996 64.031 143.027 143.027 143.027 78.987 0 143.018-64.031 143.018-143.027C286.049 64.049 222.018 0 143.031 0zm0 259.236c-64.183 0-116.209-52.026-116.209-116.209S78.857 26.818 143.031 26.818s116.2 52.026 116.2 116.209-52.025 116.209-116.2 116.209zm56.21-177.049c-6.079-3.629-13.847-1.475-17.342 4.827l-47.959 86.147-26.71-32.512c-4.836-5.569-11.263-8.456-17.333-4.827-6.079 3.638-8.591 12.39-4.657 18.004l37.169 45.241c2.78 3.611 5.953 5.775 9.27 6.392l.027.054.34.018c.751.116 11.979 2.19 16.815-6.463l55.048-98.876c3.493-6.313 1.411-14.367-4.668-18.005z" fill="#3db39e"></path>
		</symbol>
	
		<symbol id="arrow-down" viewBox="0 0 256 256">
			<path d="M225.813 48.907L128 146.72 30.187 48.907 0 79.093l128 128 128-128z"></path>
		</symbol>
	
		<symbol id="arrow-left" viewBox="0 0 49.656 49.656">
			<g fill="#FFF"><path d="M35.121 1.414l2.828 2.828-20.585 20.586 20.585 20.586-2.828 2.828-23.414-23.414z"></path><path d="M35.122 49.656l-24.83-24.828L35.121 0l4.242 4.242-20.585 20.586 20.586 20.586-4.242 4.242zM13.121 24.828l22.001 22 1.414-1.414L15.95 24.828 36.535 4.242l-1.414-1.414-22 22z"></path></g>
		</symbol>
	
		<symbol id="arrow-right" viewBox="0 0 49.656 49.656">
			<g fill="#FFF"><path d="M14.535 48.242l-2.828-2.828 20.585-20.586L11.707 4.242l2.828-2.828 23.414 23.414z"></path><path d="M14.535 49.656l-4.242-4.242 20.585-20.586L10.293 4.242 14.535 0l24.829 24.828-24.829 24.828zm-1.414-4.242l1.414 1.414 22-22-22-22-1.414 1.414 20.585 20.586-20.585 20.586z"></path></g>
		</symbol>
	
		<symbol id="cart" viewBox="-3 0 512 512">
			<path d="M494.93 97.148c-9.493-10.843-23.024-16.816-38.098-16.816H92.402l-3.668-27.5C84.781 23.207 64.156 0 41.777 0H15C6.715 0 0 6.715 0 15s6.715 15 15 15h26.777c4.813 0 15.004 10.176 17.22 26.797l42.937 322.039c1.89 14.195 9.183 27.484 20.535 37.422 8.418 7.37 18.367 12.273 28.789 14.324a54.795 54.795 0 0 0-6.66 26.25c0 30.422 24.75 55.168 55.168 55.168s55.168-24.746 55.168-55.168a54.78 54.78 0 0 0-6.102-25.164h78.602a54.78 54.78 0 0 0-6.102 25.164c0 30.422 24.75 55.168 55.168 55.168s55.168-24.746 55.168-55.168a54.78 54.78 0 0 0-6.102-25.164h39.301c8.281 0 15-6.719 15-15 0-8.285-6.719-15-15-15h-302.59c-14.656 0-28.672-12.273-30.609-26.8l-3.137-23.536h116.746c.004 0 .008.004.012.004s.008-.004.016-.004h96.367c.004 0 .008.004.015.004.004 0 .004-.004.008-.004H424.7c14.32 0 28.457-5.473 39.809-15.406 11.351-9.938 18.644-23.23 20.535-37.426l21.516-161.367c1.992-14.942-2.137-29.14-11.63-39.985zM224.934 456.832c0 13.879-11.29 25.168-25.168 25.168-13.875 0-25.168-11.29-25.168-25.168 0-13.875 11.293-25.164 25.168-25.164 13.879 0 25.168 11.289 25.168 25.164zm176.734 0c0 13.879-11.29 25.168-25.168 25.168s-25.168-11.29-25.168-25.168c0-13.875 11.29-25.164 25.168-25.164s25.168 11.289 25.168 25.164zm70.687-339.922c3.715 4.242 5.301 10.012 4.465 16.254l-9.02 67.668H365.739l6.032-90.5h85.062c6.3 0 11.813 2.336 15.523 6.578zm-213.02 204.422l-6.034-90.5h80.37l-6.034 90.5zm-8.034-120.5l-6.031-90.5h96.433l-6.031 90.5zm-36.098-90.5l6.031 90.5h-112.77l-12.066-90.5zm-102.738 120.5h110.77l6.035 90.5H124.53zm312.234 90.5h-66.996l6.035-90.5h100.063l-8.492 63.703c-1.938 14.527-15.957 26.797-30.61 26.797zm0 0"></path>
		</symbol>
	
		<symbol id="close" viewBox="0 0 311 311.07733">
			<path d="M16.035 311.078c-4.097 0-8.195-1.558-11.308-4.695-6.25-6.25-6.25-16.383 0-22.633L283.789 4.687c6.25-6.25 16.383-6.25 22.633 0s6.25 16.383 0 22.637L27.363 306.383a16.045 16.045 0 0 1-11.328 4.695zm0 0"></path><path d="M295.117 311.078a15.879 15.879 0 0 1-11.308-4.695L4.727 27.324c-6.25-6.254-6.25-16.386 0-22.636s16.382-6.25 22.636 0L306.422 283.75c6.25 6.25 6.25 16.383 0 22.633-3.137 3.117-7.23 4.695-11.305 4.695zm0 0"></path>
		</symbol>
	
		<symbol id="f-mail" viewBox="0 0 32 32">
			<path d="M25.198 9.143H6.803a.697.697 0 0 0-.707.685v12.343c0 .379.316.686.707.686h18.395c.39 0 .707-.307.707-.686V9.828a.697.697 0 0 0-.707-.685zm-1.16 1.371L16 16.506l-8.037-5.992h16.075zm.452 10.971H7.51v-9.578l8.06 6.008c.254.189.607.189.861 0l8.06-6.008v9.578z" fill="#fff"></path>
		</symbol>
	
		<symbol id="f-marker" viewBox="0 0 32 32">
			<path d="M16.085 24.064l4.76-8.07c.52-.883.798-1.898.798-2.934 0-3.16-2.535-5.736-5.643-5.736-3.109 0-5.647 2.576-5.647 5.736 0 1.067.298 2.109.848 3.011l4.884 7.993zm0 0l-4.884-7.992 4.884 7.992zm-5.983-7.303l5.443 8.909c.118.193.326.31.55.31h.005a.645.645 0 0 0 .55-.319l5.304-8.995a7.114 7.114 0 0 0 .978-3.606c0-3.88-3.109-7.04-6.932-7.04-3.824 0-6.932 3.16-6.932 7.04 0 1.311.357 2.59 1.034 3.701zM16 9.503c-1.933 0-3.504 1.597-3.504 3.557 0 1.948 1.545 3.557 3.504 3.557 1.983 0 3.503-1.631 3.503-3.557 0-1.96-1.57-3.557-3.503-3.557zm0 5.811c-1.225 0-2.219-1.011-2.219-2.254 0-1.24 1-2.254 2.219-2.254 1.217 0 2.214 1.014 2.214 2.254 0 1.225-.97 2.254-2.214 2.254z" fill="#fff" stroke="#fff" stroke-width=".15"></path>
		</symbol>
	
		<symbol id="f-phone" viewBox="0 0 32 32">
			<path d="M24.314 19.897l-2.262-2.261a1.675 1.675 0 0 0-2.366 0l-.994.993a12.64 12.64 0 0 1-5.322-5.322l.994-.993a1.675 1.675 0 0 0 0-2.367l-2.262-2.261a1.675 1.675 0 0 0-2.366 0l-1.81 1.809c-.945.945-.974 2.611-.083 4.692.804 1.875 2.28 3.94 4.154 5.815 1.875 1.875 3.94 3.35 5.816 4.154 1.008.432 1.919.648 2.698.648.828 0 1.506-.244 1.994-.731l1.809-1.81c.316-.315.49-.736.49-1.183 0-.446-.174-.867-.49-1.183zm-1.01 1.357l-1.81 1.81c-.489.489-1.655.407-3.12-.22-1.711-.734-3.618-2.102-5.367-3.851-1.75-1.75-3.118-3.656-3.851-5.369-.628-1.463-.71-2.63-.22-3.12l1.81-1.809a.246.246 0 0 1 .346 0l2.262 2.262a.246.246 0 0 1 0 .347l-1.713 1.713.216.454a14.063 14.063 0 0 0 6.671 6.672l.455.215 1.712-1.712a.244.244 0 0 1 .348 0l2.26 2.26a.245.245 0 0 1 0 .348z" fill="#fff"></path>
		</symbol>
	
		<symbol id="farba" viewBox="0 0 25 37">
			<path d="M3.757 7.655l4.623-4.54 4.617 4.565-4.642 4.54-4.598-4.565z" fill="#5DAA1A"></path><path d="M16.17.042l.568 1.239c-2.663 1.25-3.347 6.48-3.372 8.397l-.032 11.7-1.36.017.033-11.78c-.02-.32.158-7.687 4.163-9.573z" fill="#5DAA1A"></path><path d="M24.093 13.46l-23.13-.063-.06 22.763 23.129.062.061-22.762z" fill="#E33226"></path><path d="M12.68 15.745l8.905.024-.025 9.025-8.88-9.049z" fill="#fff"></path>
		</symbol>
	
		<symbol id="glass" viewBox="0 0 24 24">
			<path d="M10.4 2.4c-4.409 0-8 3.591-8 8s3.591 8 8 8c1.917 0 3.678-.68 5.058-1.811l4.776 4.777a.8.8 0 1 0 1.132-1.132l-4.777-4.776A7.958 7.958 0 0 0 18.4 10.4c0-4.409-3.591-8-8-8zm0 1.6c3.544 0 6.4 2.856 6.4 6.4 0 3.544-2.856 6.4-6.4 6.4A6.388 6.388 0 0 1 4 10.4C4 6.856 6.856 4 10.4 4z" fill="#C8C8C8"></path>
		</symbol>
	
		<symbol id="h-mail" viewBox="0 0 21 21">
			<path fill="#1C379B" d="M0 0h21v21H0z"></path><path d="M16.536 6H4.464A.457.457 0 0 0 4 6.45v8.1c0 .248.208.45.464.45h12.072a.457.457 0 0 0 .464-.45v-8.1a.457.457 0 0 0-.464-.45zm-.762.9L10.5 10.832 5.226 6.9h10.548zm.297 7.2H4.93V7.814l5.288 3.943a.476.476 0 0 0 .566 0l5.288-3.943V14.1z" fill="#fff"></path>
		</symbol>
	
		<symbol id="h-telegram" viewBox="0 0 21 21">
			<path d="M21 0H0v21h21V0z" fill="#25A4FF"></path><path d="M3.534 10.232l3.501 1.285 1.355 4.29c.09.275.431.374.653.193l1.95-1.565a.587.587 0 0 1 .71-.018l3.52 2.519c.24.174.583.044.646-.243l2.59-12.216a.409.409 0 0 0-.551-.462L3.534 9.472a.405.405 0 0 0 0 .76zm4.641.599l6.845-4.153c.12-.075.247.087.146.187l-5.648 5.17c-.197.18-.33.424-.361.692l-.19 1.403c-.026.187-.292.205-.349.025l-.74-2.563a.671.671 0 0 1 .297-.761z" fill="#fff"></path>
		</symbol>
	
		<symbol id="h-viber" viewBox="0 0 21 21">
			<path d="M21 0H0v21h21V0z" fill="#7D3DAF"></path><path d="M17.723 6.641l-.006-.018c-.345-1.4-1.912-2.906-3.347-3.222l-.018-.006a18.684 18.684 0 0 0-6.997 0l-.018.006C5.9 3.717 4.335 5.218 3.99 6.623l-.006.018a13.7 13.7 0 0 0 0 5.902l.006.018c.333 1.34 1.78 2.775 3.162 3.174v1.567a.63.63 0 0 0 1.084.434l1.584-1.65c.345.019.69.03 1.03.03 1.168 0 2.34-.113 3.502-.333l.018-.006c1.435-.316 3.002-1.816 3.347-3.222l.006-.018a13.672 13.672 0 0 0 0-5.896zm-1.256 5.622c-.233.917-1.418 2.055-2.365 2.263a17.787 17.787 0 0 1-3.722.304.09.09 0 0 0-.066.024c-.178.179-1.155 1.191-1.155 1.191l-1.233 1.262c-.09.096-.25.03-.25-.1v-2.591a.095.095 0 0 0-.071-.09c-.941-.208-2.132-1.346-2.365-2.263a12.404 12.404 0 0 1 0-5.336c.233-.917 1.418-2.055 2.365-2.263 2.156-.41 4.341-.41 6.497 0 .941.208 2.132 1.346 2.364 2.263a12.405 12.405 0 0 1 0 5.336z" fill="#fff"></path><path d="M12.906 13.46c-.143-.041-.286-.071-.41-.125-1.329-.554-2.556-1.262-3.527-2.352-.553-.62-.982-1.322-1.346-2.06a14.334 14.334 0 0 1-.464-1.079c-.137-.333.065-.673.274-.923.196-.232.453-.41.726-.548.215-.1.43-.041.584.137.34.393.65.804.9 1.263.154.28.113.625-.167.816-.066.048-.131.101-.197.155a.917.917 0 0 0-.149.155.425.425 0 0 0-.03.369c.346.953.93 1.691 1.888 2.09.155.066.31.137.483.12.297-.036.393-.358.601-.53.203-.168.459-.168.68-.03.22.136.428.285.636.434.209.15.411.292.602.459.185.16.244.375.143.59-.19.398-.465.732-.858.946-.107.054-.238.072-.369.114-.143-.048.131-.042 0 0zM10.863 5.909c1.739.048 3.168 1.203 3.472 2.924.053.292.071.596.095.887.012.125-.06.245-.196.245-.137 0-.203-.114-.209-.239-.018-.25-.03-.494-.065-.744a3.1 3.1 0 0 0-2.502-2.597c-.196-.035-.393-.041-.59-.065-.124-.012-.285-.018-.315-.173-.024-.13.083-.232.209-.238.03-.006.065 0 .1 0 1.74.048-.035 0 0 0z" fill="#fff"></path><path d="M13.502 9.333a.573.573 0 0 1-.018.12c-.048.172-.31.196-.37.017-.017-.053-.017-.113-.023-.167 0-.369-.083-.738-.268-1.06a1.96 1.96 0 0 0-.828-.774 2.322 2.322 0 0 0-.655-.202c-.101-.018-.196-.024-.298-.042-.119-.018-.184-.095-.178-.214.006-.114.089-.19.208-.185.4.024.786.107 1.138.298.72.38 1.131.988 1.256 1.792l.018.108c.012.1.012.19.018.31 0 .023-.006-.12 0 0z" fill="#fff"></path><path d="M12.424 9.292c-.143 0-.226-.078-.238-.215-.012-.095-.018-.184-.042-.28a.766.766 0 0 0-.286-.452.702.702 0 0 0-.232-.113c-.107-.03-.22-.024-.322-.048-.113-.03-.178-.12-.16-.232a.209.209 0 0 1 .22-.167c.673.048 1.155.399 1.227 1.191a.521.521 0 0 1 0 .167c-.036.101-.101.143-.167.149-.149.006.066-.006 0 0z" fill="#fff"></path>
		</symbol>
	
		<symbol id="s-fb" viewBox="0 0 96.124 96.123">
			<path d="M72.089.02L59.624 0C45.62 0 36.57 9.285 36.57 23.656v10.907H24.037a1.96 1.96 0 0 0-1.96 1.961v15.803a1.96 1.96 0 0 0 1.96 1.96H36.57v39.876a1.96 1.96 0 0 0 1.96 1.96h16.352a1.96 1.96 0 0 0 1.96-1.96V54.287h14.654a1.96 1.96 0 0 0 1.96-1.96l.006-15.803a1.963 1.963 0 0 0-1.961-1.961H56.842v-9.246c0-4.444 1.059-6.7 6.848-6.7l8.397-.003a1.96 1.96 0 0 0 1.959-1.96V1.98A1.96 1.96 0 0 0 72.089.02z"></path>
		</symbol>
	
		<symbol id="s-insta" viewBox="0 0 18 18">
			<path d="M13.128 0H4.872A4.878 4.878 0 0 0 0 4.872v8.256A4.878 4.878 0 0 0 4.872 18h8.256A4.878 4.878 0 0 0 18 13.128V4.872A4.878 4.878 0 0 0 13.128 0zM9 13.922A4.927 4.927 0 0 1 4.078 9 4.927 4.927 0 0 1 9 4.078 4.927 4.927 0 0 1 13.922 9 4.927 4.927 0 0 1 9 13.922zm5.04-8.683a1.456 1.456 0 0 1-1.455-1.454c0-.802.652-1.455 1.454-1.455.802 0 1.455.653 1.455 1.455s-.653 1.454-1.455 1.454z"></path><path d="M9 5.134A3.87 3.87 0 0 0 5.132 9a3.871 3.871 0 0 0 3.866 3.867A3.87 3.87 0 0 0 12.866 9a3.87 3.87 0 0 0-3.867-3.866zM14.04 3.386a.4.4 0 1 0 0 .799.4.4 0 0 0 0-.8z"></path>
		</symbol>
	
		<symbol id="s-ok" viewBox="0 0 60 60">
			<title>Монтажная область 2 копия 12</title><path d="M27.46 40.56c-4-.42-7.62-1.41-10.71-3.82a12.69 12.69 0 0 1-1.13-.93 3 3 0 0 1-.42-4.32 3 3 0 0 1 4.05-.91 6.09 6.09 0 0 1 .89.52 17.55 17.55 0 0 0 19.46.18 5.3 5.3 0 0 1 1.9-1 3 3 0 0 1 3.41 1.36 2.9 2.9 0 0 1-.21 3.8 15.83 15.83 0 0 1-5.7 3.68 26.66 26.66 0 0 1-6.43 1.43c.33.36.49.54.7.75 3 3 6 6 8.92 9a3 3 0 0 1 .67 3.48 3.53 3.53 0 0 1-3.31 2.06 3.25 3.25 0 0 1-2.09-1.07c-2.2-2.3-4.46-4.52-6.69-6.77-.64-.67-.95-.54-1.51 0-2.26 2.33-4.56 4.62-6.87 6.89a2.88 2.88 0 0 1-3.47.63 3.52 3.52 0 0 1-2-3.24A3.19 3.19 0 0 1 18 50.1l8.82-8.83c.19-.2.37-.41.66-.71zm0 0" fill-rule="evenodd"></path><path d="M29.9 30.32a13.08 13.08 0 1 1 13.15-12.91A13.09 13.09 0 0 1 29.9 30.32zm6.49-13.09A6.4 6.4 0 1 0 30 23.64a6.36 6.36 0 0 0 6.36-6.41zm0 0" fill-rule="evenodd"></path>
		</symbol>
	
		<symbol id="s-tw" viewBox="0 0 612 612">
			<path d="M612 116.258a250.714 250.714 0 0 1-72.088 19.772c25.929-15.527 45.777-40.155 55.184-69.411-24.322 14.379-51.169 24.82-79.775 30.48-22.907-24.437-55.49-39.658-91.63-39.658-69.334 0-125.551 56.217-125.551 125.513 0 9.828 1.109 19.427 3.251 28.606-104.326-5.24-196.835-55.223-258.75-131.174-10.823 18.51-16.98 40.078-16.98 63.101 0 43.559 22.181 81.993 55.835 104.479a125.556 125.556 0 0 1-56.867-15.756v1.568c0 60.806 43.291 111.554 100.693 123.104-10.517 2.83-21.607 4.398-33.08 4.398-8.107 0-15.947-.803-23.634-2.333 15.985 49.907 62.336 86.199 117.253 87.194-42.947 33.654-97.099 53.655-155.916 53.655-10.134 0-20.116-.612-29.944-1.721 55.567 35.681 121.536 56.485 192.438 56.485 230.948 0 357.188-191.291 357.188-357.188l-.421-16.253c24.666-17.593 46.005-39.697 62.794-64.861z"></path>
		</symbol>
	
		<symbol id="s-vk" viewBox="0 0 60 60">
			<title>Монтажная область 2 копия 11</title><path d="M51 34.38a78.73 78.73 0 0 1 5.69 5.72 16.59 16.59 0 0 1 2 2.94c.78 1.52.07 3.19-1.29 3.28h-8.46a6.53 6.53 0 0 1-5.39-2.19c-1.18-1.2-2.26-2.47-3.39-3.7a8.18 8.18 0 0 0-1.52-1.36 1.77 1.77 0 0 0-2.82.69 8.82 8.82 0 0 0-.89 4c-.09 2-.7 2.52-2.7 2.61a21.64 21.64 0 0 1-12.11-2.61A26.79 26.79 0 0 1 12 36.08 102.21 102.21 0 0 1 1.24 17c-.68-1.51-.19-2.32 1.48-2.35q4.14-.07 8.29 0a2.44 2.44 0 0 1 2.3 1.72 51.49 51.49 0 0 0 5.61 10.41 8.92 8.92 0 0 0 2.13 2.33 1.29 1.29 0 0 0 2.19-.64 7.16 7.16 0 0 0 .48-2.19 32.64 32.64 0 0 0-.13-7.65 3.19 3.19 0 0 0-2.72-2.92c-.81-.15-.69-.45-.3-.91a3 3 0 0 1 2.6-1.3h9.57c1.51.3 1.84 1 2 2.49v10.59c0 .59.3 2.33 1.35 2.72.85.27 1.41-.4 1.91-.94a32.59 32.59 0 0 0 5.39-8.28c.65-1.31 1.21-2.67 1.75-4a2 2 0 0 1 2.16-1.48h9.21a5.42 5.42 0 0 1 .81.05c1.56.27 2 .94 1.5 2.45a22.74 22.74 0 0 1-3.66 6.35c-1.54 2.12-3.18 4.18-4.7 6.31-1.4 2-1.29 2.94.45 4.64zm0 0" fill-rule="evenodd"></path>
		</symbol>
	
		<symbol id="s-youtube" viewBox="0 0 18 12">
			<path clip-rule="evenodd" d="M15.3 0H2.7C1.2 0 0 1.143 0 2.571v6.881c0 1.405 1.2 2.572 2.7 2.572h12.625c1.475 0 2.7-1.143 2.7-2.572v-6.88C18 1.141 16.8 0 15.3 0zM7.2 8.905V2.452l5.15 3.238L7.2 8.905z"></path>
		</symbol>
	
		<symbol id="s-yt" viewBox="0 0 21 14">
			<path clip-rule="evenodd" d="M17.825 0H3.145C1.399 0 0 1.33 0 2.994v8.012C0 12.642 1.398 14 3.146 14h14.708C19.573 14 21 12.67 21 11.006V2.994C20.97 1.331 19.573 0 17.825 0zM8.388 10.368V2.855l6 3.77-6 3.743z"></path>
		</symbol>
	
		<symbol id="searcher" viewBox="0 0 20 20">
			<path d="M8.4.4c-4.409 0-8 3.591-8 8s3.591 8 8 8c1.917 0 3.678-.68 5.058-1.811l4.776 4.777a.8.8 0 1 0 1.132-1.132l-4.777-4.776A7.958 7.958 0 0 0 16.4 8.4c0-4.409-3.591-8-8-8zm0 1.6c3.544 0 6.4 2.856 6.4 6.4 0 3.544-2.856 6.4-6.4 6.4A6.388 6.388 0 0 1 2 8.4C2 4.856 4.856 2 8.4 2z" fill="#C8C8C8"></path>
		</symbol>
	
		<symbol id="slick-next" viewBox="0 0 15 30">
			<path stroke="#000" d="M1.34.332L14.627 15.28M1.34 29.668L14.627 14.72"></path>
		</symbol>
	
		<symbol id="slick-prev" viewBox="0 0 15 30">
			<path stroke="#000" d="M14.374.332L1.087 15.28M14.374 29.668L1.087 14.72"></path>
		</symbol>
	
		<symbol id="style-grid" viewBox="0 0 22 22">
			<path d="M0 0h6v6H0zM8 0h6v6H8zM16 0h6v6h-6zM8 16h6v6H8zM16 16h6v6h-6zM0 8h6v6H0zM8 8h6v6H8zM16 8h6v6h-6zM0 16h6v6H0z"></path>
		</symbol>
	
		<symbol id="style-list" viewBox="0 0 22 22">
			<path d="M0 0h22v4H0zM0 6h22v4H0zM0 12h22v4H0zM0 18h22v4H0z"></path>
		</symbol>
	
		<symbol id="telegram" viewBox="0 0 24 24">
			<path d="M19.555 2.996a2.236 2.236 0 0 0-.703.168c-.215.086-1.23.512-2.778 1.16-1.543.652-3.547 1.496-5.535 2.332-3.973 1.672-7.879 3.32-7.879 3.32l.047-.02s-.27.09-.55.282c-.145.094-.302.223-.438.426-.14.203-.25.512-.211.832.07.543.422.867.672 1.047.254.18.5.266.5.266h.004l3.664 1.234c.164.527 1.113 3.656 1.343 4.375.133.434.266.703.43.906.078.106.172.195.285.266a.857.857 0 0 0 .184.078l-.04-.008c.013 0 .024.012.032.012.027.011.05.011.086.02.582.175 1.047-.184 1.047-.184l.027-.024 2.16-1.969 3.625 2.782.082.035c.758.332 1.52.148 1.926-.18.406-.328.567-.746.567-.746l.023-.066 2.8-14.348c.083-.355.102-.684.012-1.008a1.346 1.346 0 0 0-1.382-.988zm-.078 1.539c-.004.047.003.043-.016.133v.008L16.688 18.87c-.012.023-.032.066-.086.11-.059.046-.106.077-.352-.02l-4.434-3.399-2.675 2.442.562-3.594s6.942-6.473 7.242-6.75c.297-.277.2-.336.2-.336.02-.34-.454-.101-.454-.101l-9.128 5.66-.004-.016-4.38-1.473v-.004s-.007-.003-.011-.003c.004 0 .023-.008.023-.008l.024-.012.027-.008s3.906-1.648 7.88-3.32c1.987-.836 3.991-1.684 5.534-2.332 1.54-.649 2.68-1.121 2.742-1.149.063-.023.036-.023.079-.023z" fill="#3498DB"></path>
		</symbol>
	
		<symbol id="toggler" viewBox="0 0 10 8">
			<path stroke="#000" d="M.404.706l4.706 6.47M9.477.706l-4.705 6.47"></path>
		</symbol>
	
		<symbol id="user" viewBox="0 0 512 512">
			<path d="M256 0c-74.439 0-135 60.561-135 135s60.561 135 135 135 135-60.561 135-135S330.439 0 256 0zM423.966 358.195C387.006 320.667 338.009 300 286 300h-60c-52.008 0-101.006 20.667-137.966 58.195C51.255 395.539 31 444.833 31 497c0 8.284 6.716 15 15 15h420c8.284 0 15-6.716 15-15 0-52.167-20.255-101.461-57.034-138.805z"></path>
		</symbol>
	
		<symbol id="viber" viewBox="0 0 24 24">
			<path d="M12 2.5c-1.32 0-5.335 0-7.555 2.027C3.123 5.844 2.5 7.747 2.5 10.5V12c0 2.753.623 4.656 1.96 5.988.667.608 1.575 1.093 2.684 1.428l.356.107v2.665c0 .312.09.312.12.312.062 0 .16-.02.348-.186.044-.044.374-.401 1.98-2.199l.162-.181.242.015c.537.034 1.092.051 1.648.051 1.32 0 5.335 0 7.555-2.027C20.877 16.655 21.5 14.752 21.5 12v-1.5c0-2.753-.623-4.656-1.96-5.988C17.334 2.5 13.32 2.5 12 2.5z" fill="#fff"></path><path d="M16.726 14.427c-.556-.468-.812-.61-1.58-1.07-.319-.191-.806-.357-1.062-.357-.174 0-.383.133-.511.261-.328.329-.436.739-1.01.739-.563 0-1.546-.572-2.25-1.313C9.572 11.983 9 11 9 10.438c0-.574.403-.69.731-1.018.128-.128.269-.337.269-.511 0-.255-.165-.735-.357-1.054-.46-.768-.601-1.024-1.07-1.58C8.415 6.087 8.234 6 8.045 6c-.32 0-.739.158-1.023.37-.427.318-.873.752-.993 1.292a1.285 1.285 0 0 0-.028.221c-.023.562.198 1.134.436 1.617.562 1.14 1.305 2.242 2.113 3.227.259.316.54.608.832.891.283.291.576.573.89.832.986.809 2.088 1.552 3.228 2.113.479.236 1.043.453 1.6.437.08-.003.159-.012.239-.029.54-.119.973-.566 1.292-.993.211-.284.37-.703.369-1.023 0-.189-.087-.37-.274-.528zM17 12a.5.5 0 0 1-.5-.5V11c0-2.481-2.019-4.5-4.5-4.5a.5.5 0 0 1 0-1c3.033 0 5.5 2.468 5.5 5.5v.5a.5.5 0 0 1-.5.5zm-3.071-1a.5.5 0 0 1-.484-.374 1.494 1.494 0 0 0-1.07-1.071.5.5 0 0 1 .25-.969 2.497 2.497 0 0 1 1.788 1.787.5.5 0 0 1-.484.627z" fill="#7E57C2"></path><path d="M15.5 11.5a.5.5 0 0 1-.5-.5 2.997 2.997 0 0 0-2.839-2.993.5.5 0 1 1 .053-.998A3.996 3.996 0 0 1 16 11a.5.5 0 0 1-.5.5z" fill="#7E57C2"></path><path d="M12 2c-2.25 0-5.756.207-7.892 2.158C2.598 5.661 2 7.77 2 10.5c0 .226-.001.478.001.75-.002.271-.001.524-.001.75 0 2.729.598 4.838 2.108 6.341.813.743 1.827 1.232 2.892 1.553v2.294c0 .797.525.812.62.812h.005c.247-.001.46-.122.675-.312.08-.072 1.01-1.107 2.02-2.24A26.49 26.49 0 0 0 12 20.5c2.25 0 5.755-.207 7.892-2.159C21.4 16.838 22 14.73 22 12c0-.226 0-.478-.002-.75.002-.272.002-.523.002-.75 0-2.729-.599-4.838-2.108-6.342C17.756 2.207 14.25 2 12 2zm8.5 9.825V12c0 2.453-.523 4.124-1.643 5.256C16.916 19 13.219 19 12 19c-.371 0-.973 0-1.684-.05L8 21.541V18.61c-1.052-.252-2.091-.666-2.857-1.354-1.12-1.132-1.643-2.803-1.643-5.257v-.174l.001-.586-.001-.565V10.5c0-2.453.523-4.125 1.643-5.256C7.083 3.5 10.781 3.5 12 3.5c1.219 0 4.916 0 6.857 1.744C19.977 6.375 20.5 8.047 20.5 10.5v.174c0 .176 0 .365-.002.587.002.2.002.389.002.565z" fill="#7E57C2"></path>
		</symbol>
	
		<symbol id="whatsup" viewBox="0 0 26 26">
			<path fill-rule="evenodd" clip-rule="evenodd" d="M19.91 6.098a9.648 9.648 0 0 0-6.868-2.848c-5.353 0-9.712 4.354-9.712 9.708 0 1.71.445 3.377 1.295 4.85l-1.375 5.03 5.146-1.35a9.691 9.691 0 0 0 4.642 1.182h.004c5.35 0 9.704-4.355 9.708-9.708a9.658 9.658 0 0 0-2.84-6.864zm-6.868 14.934h-.004a8.068 8.068 0 0 1-4.105-1.126l-.296-.173-3.055.8.812-2.98-.19-.304a8.034 8.034 0 0 1-1.232-4.291c0-4.448 3.619-8.066 8.074-8.066a8.01 8.01 0 0 1 5.7 2.365 8.015 8.015 0 0 1 2.362 5.705c0 4.452-3.618 8.07-8.066 8.07zm4.423-6.043c-.242-.123-1.435-.711-1.655-.787-.224-.085-.385-.123-.546.118-.16.246-.626.792-.77.953-.14.16-.28.181-.52.059-.246-.119-1.029-.377-1.956-1.206-.72-.64-1.206-1.435-1.346-1.676-.143-.246-.016-.377.102-.495.114-.11.246-.284.368-.428.119-.14.161-.24.242-.402.08-.16.038-.304-.022-.427-.059-.119-.546-1.316-.749-1.803-.194-.47-.397-.406-.546-.415-.14-.004-.3-.004-.46-.004a.876.876 0 0 0-.648.305c-.225.241-.85.825-.85 2.018 0 1.194.87 2.35.99 2.514.122.157 1.713 2.607 4.146 3.656.576.254 1.029.402 1.38.512.58.187 1.113.161 1.532.098.465-.068 1.434-.584 1.638-1.155.198-.563.198-1.05.14-1.151-.064-.102-.225-.161-.47-.284z" fill="#40C351"></path>
		</symbol>
	
</svg>
