<svg width="32" height="32" viewBox="0 0 32 32" fill="none" xmlns="http://www.w3.org/2000/svg">
<path d="M16.0851 24.0643L20.8443 15.9941C21.3641 15.1107 21.6428 14.0959 21.6428 13.06C21.6428 9.90015 19.108 7.32368 15.9997 7.32368C12.8914 7.32368 10.3528 9.90022 10.3528 13.06C10.3528 14.1274 10.6511 15.1687 11.2015 16.0715L16.0851 24.0643ZM16.0851 24.0643L11.2015 16.0715L16.0851 24.0643ZM10.1021 16.7612L10.1022 16.7612L15.5454 25.67C15.6631 25.8626 15.8709 25.9802 16.0949 25.9802L16.0995 25.9802L16.1001 25.9802C16.326 25.9784 16.5342 25.8572 16.6498 25.6612L21.9543 16.6661L21.9543 16.6661C22.5939 15.5791 22.9319 14.3322 22.9319 13.06C22.9319 9.17956 19.8233 6.0207 15.9997 6.0207C12.1762 6.0207 9.06758 9.17956 9.06758 13.06C9.06758 14.3711 9.42517 15.6508 10.1021 16.7612ZM15.9997 9.50285C14.0667 9.50285 12.4962 11.0996 12.4962 13.06C12.4962 15.0076 14.0411 16.6171 15.9997 16.6171C17.9825 16.6171 19.5033 14.986 19.5033 13.06C19.5033 11.0996 17.9328 9.50285 15.9997 9.50285ZM15.9997 15.3142C14.7754 15.3142 13.7814 14.303 13.7814 13.06C13.7814 11.8203 14.7819 10.8058 15.9997 10.8058C17.2174 10.8058 18.2142 11.8201 18.2142 13.06C18.2142 14.2853 17.2432 15.3142 15.9997 15.3142Z" fill="white" stroke="white" stroke-width="0.15"/>
</svg>
