<svg width="32" height="32" viewBox="0 0 32 32" fill="none" xmlns="http://www.w3.org/2000/svg">
<path d="M24.3137 19.8973L22.0522 17.6359C21.3998 16.9834 20.338 16.9835 19.6857 17.6359L18.6922 18.6294C16.4229 17.4411 14.5582 15.5764 13.3699 13.3071L14.3635 12.3136C15.0159 11.6611 15.0159 10.5995 14.3635 9.94702L12.1021 7.68562C11.4496 7.03318 10.388 7.03318 9.73554 7.68562L7.92641 9.4948C6.98113 10.44 6.95157 12.1064 7.84317 14.1868C8.64691 16.0622 10.1221 18.1276 11.9969 20.0024C13.8717 21.8772 15.9371 23.3524 17.8125 24.1561C18.8208 24.5883 19.7318 24.804 20.5106 24.804C21.3387 24.804 22.0174 24.56 22.5045 24.0729L24.3136 22.2638C24.6297 21.9477 24.8038 21.5275 24.8038 21.0805C24.8038 20.6336 24.6297 20.2134 24.3137 19.8973ZM23.3039 21.2541L21.4948 23.0633C21.005 23.553 19.8387 23.471 18.3749 22.8437C16.6625 22.1098 14.756 20.7422 13.0065 18.9927C11.2571 17.2433 9.88945 15.3368 9.15553 13.6243C8.52826 12.1606 8.44612 10.9943 8.93599 10.5045L10.7451 8.69539C10.8409 8.59968 10.9966 8.59968 11.0923 8.69539L13.3537 10.9568C13.4494 11.0525 13.4494 11.2083 13.3537 11.3039L11.6411 13.0166L11.8565 13.4713C13.2393 16.3906 15.6087 18.76 18.5281 20.1428L18.9827 20.3582L20.6954 18.6456C20.7579 18.583 20.831 18.5737 20.8689 18.5737C20.9069 18.5737 20.9799 18.583 21.0425 18.6455L23.3039 20.9069C23.3664 20.9695 23.3758 21.0425 23.3758 21.0805C23.3759 21.1185 23.3664 21.1916 23.3039 21.2541Z" fill="white"/>
</svg>
