<svg width="24" height="24" viewBox="0 0 24 24" fill="none" xmlns="http://www.w3.org/2000/svg">
<path d="M10.4 2.3999C5.99119 2.3999 2.39999 5.9911 2.39999 10.3999C2.39999 14.8087 5.99119 18.3999 10.4 18.3999C12.3172 18.3999 14.0779 17.7191 15.4578 16.589L20.2344 21.3655C20.3081 21.4423 20.3964 21.5036 20.4941 21.5458C20.5918 21.5881 20.6969 21.6104 20.8034 21.6115C20.9098 21.6125 21.0154 21.5924 21.1139 21.5521C21.2125 21.5119 21.302 21.4524 21.3773 21.3772C21.4525 21.3019 21.512 21.2124 21.5522 21.1138C21.5925 21.0153 21.6126 20.9097 21.6115 20.8033C21.6105 20.6968 21.5882 20.5917 21.5459 20.494C21.5037 20.3963 21.4424 20.308 21.3656 20.2343L16.5891 15.4577C17.7192 14.0778 18.4 12.3171 18.4 10.3999C18.4 5.9911 14.8088 2.3999 10.4 2.3999ZM10.4 3.9999C13.9441 3.9999 16.8 6.8558 16.8 10.3999C16.8 13.944 13.9441 16.7999 10.4 16.7999C6.8559 16.7999 3.99999 13.944 3.99999 10.3999C3.99999 6.8558 6.8559 3.9999 10.4 3.9999Z" fill="#C8C8C8"/>
</svg>
