<svg width="21" height="21" viewBox="0 0 21 21" fill="none" xmlns="http://www.w3.org/2000/svg">
<path d="M21 0H0V21H21V0Z" fill="#25A4FF"/>
<path d="M3.53354 10.2324L7.03534 11.517L8.39046 15.8072C8.47912 16.0816 8.82106 16.1813 9.0427 16.0005L10.9931 14.4353C11.1957 14.2732 11.487 14.2607 11.7023 14.4166L15.2231 16.9359C15.4637 17.1105 15.8057 16.9795 15.869 16.6927L18.4589 4.47682C18.5223 4.15879 18.212 3.89689 17.908 4.01537L3.53354 9.47166C3.17892 9.60884 3.17892 10.1015 3.53354 10.2324ZM8.17516 10.831L15.0205 6.67804C15.1408 6.60321 15.2674 6.76534 15.1661 6.86511L9.51763 12.0345C9.32132 12.2154 9.18834 12.4586 9.15668 12.7267L8.96671 14.1298C8.94138 14.3168 8.67542 14.3355 8.61843 14.1547L7.87754 11.5918C7.78889 11.305 7.91554 10.9932 8.17516 10.831Z" fill="white"/>
</svg>
