<svg width="21" height="21" viewBox="0 0 21 21" fill="none" xmlns="http://www.w3.org/2000/svg">
<path d="M21 0H0V21H21V0Z" fill="#7D3DAF"/>
<path d="M17.7231 6.64123L17.7171 6.62336C17.3717 5.22381 15.8054 3.71707 14.3701 3.40143L14.3522 3.39547C12.0296 2.95476 9.67717 2.95476 7.35452 3.39547L7.33666 3.40143C5.90138 3.71707 4.33508 5.21786 3.98966 6.62336L3.98371 6.64123C3.55491 8.60059 3.55491 10.5838 3.98371 12.5431L3.98966 12.561C4.32317 13.901 5.77036 15.3363 7.15204 15.7353V17.3016C7.15204 17.8674 7.84288 18.1473 8.23594 17.7363L9.8201 16.0867C10.1655 16.1045 10.5109 16.1164 10.8504 16.1164C12.0177 16.1164 13.1909 16.0033 14.3522 15.7829L14.3701 15.777C15.8054 15.4613 17.3717 13.9606 17.7171 12.555L17.7231 12.5372C18.1519 10.5838 18.1519 8.60059 17.7231 6.64123ZM16.4665 12.2632C16.2342 13.1804 15.049 14.3179 14.1021 14.5263C12.8693 14.7586 11.6246 14.8598 10.3799 14.8301C10.3561 14.8301 10.3323 14.836 10.3144 14.8539C10.1357 15.0325 9.15904 16.045 9.15904 16.045L7.92625 17.3075C7.83692 17.4028 7.67612 17.3373 7.67612 17.2063V14.6157C7.67612 14.574 7.64634 14.5382 7.60466 14.5263C6.66369 14.3179 5.47258 13.1804 5.24032 12.2632C4.85321 10.4944 4.85321 8.70183 5.24032 6.92709C5.47258 6.00994 6.65773 4.87244 7.60466 4.664C9.76055 4.25307 11.9462 4.25307 14.1021 4.664C15.0431 4.87244 16.2342 6.00994 16.4665 6.92709C16.8536 8.69588 16.8536 10.4885 16.4665 12.2632Z" fill="white"/>
<path d="M12.906 13.4605C12.7631 13.4188 12.6202 13.389 12.4951 13.3354C11.167 12.7815 9.94019 12.0728 8.96944 10.983C8.41558 10.3636 7.98678 9.66086 7.62349 8.92237C7.45078 8.571 7.3019 8.20771 7.15896 7.84443C7.02199 7.51092 7.22447 7.17145 7.43292 6.92132C7.62945 6.68906 7.88554 6.51039 8.15949 6.37342C8.37389 6.27217 8.58829 6.33173 8.74313 6.51039C9.08259 6.90346 9.39228 7.31439 9.64241 7.77296C9.79726 8.05287 9.75557 8.39829 9.47566 8.58887C9.41015 8.63651 9.34464 8.69011 9.27913 8.74371C9.22553 8.79135 9.17193 8.839 9.13024 8.89855C9.05877 9.01171 9.05877 9.14868 9.10046 9.26779C9.44588 10.2207 10.0295 10.9592 10.9884 11.3582C11.1432 11.4237 11.298 11.4952 11.4708 11.4773C11.7685 11.4416 11.8638 11.12 12.0723 10.9472C12.2748 10.7805 12.5308 10.7805 12.7512 10.9175C12.9715 11.0544 13.18 11.2033 13.3884 11.3522C13.5969 11.5011 13.7994 11.644 13.9899 11.8108C14.1746 11.9716 14.2341 12.186 14.1329 12.4004C13.9423 12.7994 13.6683 13.1329 13.2753 13.3473C13.1681 13.4009 13.0371 13.4188 12.906 13.4605C12.7631 13.4128 13.0371 13.4188 12.906 13.4605Z" fill="white"/>
<path d="M10.8628 5.9089C12.6018 5.95654 14.0312 7.11191 14.3349 8.83306C14.3885 9.12488 14.4064 9.42861 14.4302 9.72043C14.4421 9.84549 14.3706 9.9646 14.2336 9.9646C14.0967 9.9646 14.0312 9.85145 14.0252 9.72638C14.0073 9.47625 13.9954 9.23207 13.9597 8.98194C13.781 7.68364 12.7448 6.61165 11.4584 6.38534C11.2618 6.3496 11.0653 6.34365 10.8688 6.31983C10.7437 6.30792 10.5829 6.30196 10.5531 6.14712C10.5293 6.0161 10.6365 5.91485 10.7616 5.9089C10.7914 5.90294 10.8271 5.9089 10.8628 5.9089C12.6018 5.95654 10.8271 5.9089 10.8628 5.9089Z" fill="white"/>
<path d="M13.5019 9.33328C13.5019 9.3571 13.496 9.40474 13.4841 9.45239C13.4364 9.6251 13.1744 9.64892 13.1148 9.47025C13.097 9.41665 13.097 9.3571 13.091 9.3035C13.091 8.93426 13.0076 8.56501 12.823 8.24342C12.6324 7.91586 12.3406 7.63595 11.9952 7.4692C11.7868 7.36796 11.5664 7.30245 11.3401 7.26671C11.2389 7.24885 11.1436 7.24289 11.0423 7.22502C10.9232 7.20716 10.8577 7.12974 10.8637 7.01063C10.8696 6.89747 10.953 6.82005 11.0721 6.826C11.4711 6.84983 11.8582 6.9332 12.2096 7.12378C12.9302 7.50493 13.3411 8.1124 13.4662 8.91639C13.4722 8.95212 13.4781 8.98786 13.4841 9.02359C13.496 9.12483 13.496 9.21417 13.5019 9.33328C13.5019 9.3571 13.496 9.21417 13.5019 9.33328Z" fill="white"/>
<path d="M12.424 9.29176C12.281 9.29176 12.1977 9.21434 12.1858 9.07736C12.1738 8.98207 12.1679 8.89274 12.1441 8.79745C12.1024 8.61878 12.0071 8.45203 11.8582 8.34483C11.7867 8.29123 11.7093 8.2555 11.6259 8.23168C11.5187 8.2019 11.4056 8.20785 11.3043 8.18403C11.1912 8.15426 11.1257 8.06492 11.1435 7.95177C11.1614 7.85053 11.2567 7.77906 11.3639 7.78501C12.0369 7.83266 12.5193 8.18403 12.5907 8.97612C12.5967 9.02971 12.6026 9.08927 12.5907 9.14287C12.555 9.24411 12.4895 9.2858 12.424 9.29176C12.2751 9.29771 12.4895 9.2858 12.424 9.29176Z" fill="white"/>
</svg>
