<svg width="20" height="20" viewBox="0 0 20 20" fill="none" xmlns="http://www.w3.org/2000/svg">
<path d="M8.39999 0.399902C3.99119 0.399902 0.399994 3.9911 0.399994 8.3999C0.399994 12.8087 3.99119 16.3999 8.39999 16.3999C10.3172 16.3999 12.0779 15.7191 13.4578 14.589L18.2344 19.3655C18.3081 19.4423 18.3964 19.5036 18.4941 19.5458C18.5918 19.5881 18.6969 19.6104 18.8034 19.6115C18.9098 19.6125 19.0154 19.5924 19.1139 19.5521C19.2125 19.5119 19.302 19.4524 19.3773 19.3772C19.4525 19.3019 19.512 19.2124 19.5522 19.1138C19.5925 19.0153 19.6126 18.9097 19.6115 18.8033C19.6105 18.6968 19.5882 18.5917 19.5459 18.494C19.5037 18.3963 19.4424 18.308 19.3656 18.2343L14.5891 13.4577C15.7192 12.0778 16.4 10.3171 16.4 8.3999C16.4 3.9911 12.8088 0.399902 8.39999 0.399902ZM8.39999 1.9999C11.9441 1.9999 14.8 4.8558 14.8 8.3999C14.8 11.944 11.9441 14.7999 8.39999 14.7999C4.8559 14.7999 1.99999 11.944 1.99999 8.3999C1.99999 4.8558 4.8559 1.9999 8.39999 1.9999Z" fill="#C8C8C8"/>
</svg>
