<svg width="24" height="24" viewBox="0 0 24 24" fill="none" xmlns="http://www.w3.org/2000/svg">
<path d="M19.5547 2.99599C19.3008 3.00771 19.0625 3.08193 18.8516 3.16396C18.6367 3.2499 17.6211 3.67568 16.0742 4.32412C14.5313 4.97646 12.5273 5.82021 10.5391 6.65615C6.56641 8.32802 2.66016 9.97646 2.66016 9.97646L2.70704 9.95693C2.70704 9.95693 2.4375 10.0468 2.15625 10.2382C2.01172 10.3319 1.85547 10.4608 1.71875 10.664C1.57813 10.8671 1.46875 11.1757 1.50782 11.496C1.57813 12.039 1.92969 12.3632 2.17969 12.5429C2.4336 12.7226 2.67969 12.8085 2.67969 12.8085H2.6836L6.34766 14.0429C6.51172 14.5702 7.46094 17.6991 7.69141 18.4179C7.82422 18.8515 7.95704 19.121 8.1211 19.3241C8.19922 19.4296 8.29297 19.5194 8.40625 19.5897C8.44922 19.6132 8.4961 19.6366 8.54297 19.6522C8.5586 19.6601 8.57422 19.664 8.58985 19.6679L8.55079 19.6601C8.56251 19.6601 8.57422 19.6718 8.58204 19.6718C8.60938 19.6835 8.63282 19.6835 8.66797 19.6913C9.25 19.8671 9.71485 19.5077 9.71485 19.5077L9.74219 19.4843L11.9023 17.5155L15.5273 20.2968L15.6094 20.3319C16.3672 20.664 17.1289 20.4804 17.5352 20.1522C17.9414 19.8241 18.1016 19.4061 18.1016 19.4061L18.125 19.3397L20.9258 4.99209C21.0078 4.63662 21.0273 4.30849 20.9375 3.98427C20.8516 3.66396 20.625 3.35927 20.3516 3.19912C20.0781 3.03506 19.8047 2.98427 19.5547 2.99599ZM19.4766 4.53505C19.4727 4.58193 19.4805 4.57802 19.4609 4.66787V4.67568L16.6875 18.871C16.6758 18.8944 16.6563 18.9374 16.6016 18.9804C16.543 19.0272 16.4961 19.0585 16.25 18.9608L11.8164 15.5624L9.14063 18.0038L9.70313 14.4101C9.70313 14.4101 16.6445 7.9374 16.9453 7.66006C17.2422 7.38271 17.1445 7.32412 17.1445 7.32412C17.1641 6.98427 16.6914 7.22256 16.6914 7.22256L7.5625 12.8827L7.5586 12.8671L3.17969 11.3944V11.3905C3.17969 11.3905 3.17188 11.3866 3.16797 11.3866C3.17188 11.3866 3.19141 11.3788 3.19141 11.3788L3.21485 11.3671L3.24219 11.3593C3.24219 11.3593 7.14844 9.71084 11.1211 8.03896C13.1094 7.20302 15.1133 6.35537 16.6563 5.70693C18.1953 5.05849 19.3359 4.58584 19.3984 4.55849C19.4609 4.53506 19.4336 4.53505 19.4766 4.53505Z" fill="#3498DB"/>
</svg>
