<svg id="Layer_1" enable-background="new 0 0 512.408 512.408" height="512" viewBox="0 0 512.408 512.408" width="512" xmlns="http://www.w3.org/2000/svg"><g><path d="m365.916 0-10.915 12.576c-2.542 2.928-56.212 64.967-94.447 124.604-35.463-45.275-66.789-78.576-68.283-80.16l-10.877-11.528c-.073.1-180.684 185.234-180.684 287.263 0 99.061 81.04 179.653 180.651 179.653 83.7 0 154.21-57.536 174.067-135.134 84.327 6.324 156.269-60.212 156.269-143.953.001-82.391-145.708-233.221-145.781-233.321zm-184.554 482.408c-83.069 0-150.651-67.134-150.651-149.653 0-64.556 100.2-187.967 150.62-243.357 50.126 55.392 149.685 178.749 149.685 243.357-.001 82.519-67.135 149.653-149.654 149.653zm179.042-134.885c.398-4.872.611-9.795.611-14.768 0-39.979-27.271-97.177-81.05-170.059 27.558-44.856 67.66-94.575 86.777-117.538 40.226 45.296 114.956 139.497 114.956 188.163 0 65.072-55.141 117.607-121.294 114.202z"/><path d="m173.168 215.83-59.427 109.472h81.853l-42.265 74.926 26.128 14.74 67.504-119.666h-82.799l35.372-65.159z"/></g></svg>