<svg width="26" height="26" viewBox="0 0 26 26" fill="none" xmlns="http://www.w3.org/2000/svg">
<g clip-path="url(#clip0)">
<path d="M25.9392 5.77962C25.8066 5.4406 25.4796 5.21777 25.1159 5.21777H18.896V6.98649H22.8578L20.4362 9.22681H14.5332V10.9955H20.7826C21.0051 10.9955 21.2197 10.9115 21.383 10.7603L25.7163 6.75127C25.9834 6.50417 26.0718 6.11833 25.9392 5.77962Z" fill="#172542"/>
<path d="M10.7594 6.98624V5.21753H5.21752C4.99495 5.21753 4.78035 5.30152 4.61703 5.45275L0.283758 9.46184C0.0166993 9.70889 -0.0717619 10.0947 0.060879 10.4334C0.19352 10.7725 0.520146 10.9953 0.884197 10.9953H6.80932V9.22657H3.14255L5.5639 6.98624H10.7594Z" fill="#172542"/>
<path d="M6.6326 12.6465H0.884357C0.395891 12.6465 0 13.0424 0 13.5308C0 14.0192 0.395891 14.4151 0.884357 14.4151H6.6326C7.12107 14.4151 7.51696 14.0193 7.51696 13.5308C7.51696 13.0423 7.12107 12.6465 6.6326 12.6465Z" fill="#172542"/>
<path d="M25.8094 9.56339C25.5067 9.17958 24.951 9.11413 24.5672 9.41688L20.4748 12.6465H14.6207C14.1322 12.6465 13.7363 13.0424 13.7363 13.5309C13.7363 14.0193 14.1322 14.4152 14.6207 14.4152H20.7816C20.9806 14.4152 21.1734 14.348 21.3296 14.2251L25.6629 10.8053C26.0464 10.5028 26.1119 9.94689 25.8094 9.56339Z" fill="#172542"/>
<path d="M6.6326 16.0952H0.884357C0.395891 16.0952 0 16.4911 0 16.9796C0 17.468 0.395891 17.8639 0.884357 17.8639H6.6326C7.12107 17.8639 7.51696 17.468 7.51696 16.9796C7.51696 16.4911 7.12107 16.0952 6.6326 16.0952Z" fill="#172542"/>
<path d="M25.8318 13.338C25.5464 12.9418 24.9943 12.8521 24.5972 13.1378L20.4956 16.0953H14.6793C14.1908 16.0953 13.7949 16.4912 13.7949 16.9797C13.7949 17.4682 14.1908 17.864 14.6793 17.864H20.7813C20.967 17.864 21.148 17.8057 21.2983 17.6972L25.6316 14.5725C26.0278 14.2869 26.1171 13.7341 25.8318 13.338Z" fill="#172542"/>
<path d="M25.8556 17.0854C25.5886 16.6765 25.0403 16.561 24.6317 16.8286L20.5189 19.5146H0.884357C0.395891 19.5146 0 19.9105 0 20.399C0 20.8875 0.395891 21.2834 0.884357 21.2834H20.7821C20.954 21.2834 21.1217 21.2335 21.2656 21.1395L25.5988 18.3093C26.0077 18.0422 26.1227 17.4945 25.8556 17.0854Z" fill="#172542"/>
<path d="M20.0139 5.27723C19.881 4.93882 19.5544 4.71655 19.1909 4.71655H11.4677C11.2442 4.71655 11.029 4.80115 10.8654 4.95355L6.20787 9.28682C6.02805 9.45394 5.92578 9.6886 5.92578 9.93418V20.1042H7.69449V10.3195L11.8156 6.48522H16.9421L13.9309 9.28682C13.7514 9.45394 13.6491 9.6886 13.6491 9.93418V20.1042H15.4178V10.3195L19.7936 6.24822C20.0593 6.00091 20.1469 5.61564 20.0139 5.27723Z" fill="#172542"/>
</g>
<defs>
<clipPath id="clip0">
<rect width="26" height="26" fill="white"/>
</clipPath>
</defs>
</svg>
