<svg width="24" height="24" viewBox="0 0 24 24" fill="none" xmlns="http://www.w3.org/2000/svg">
<path d="M23.9604 22.0029L22.589 17.2029C22.4628 16.7614 22.0592 16.4569 21.6 16.4569H20.5714V9.59977H22.2857C22.7389 9.59977 23.1387 9.30305 23.2701 8.86927C23.4015 8.43549 23.2333 7.96679 22.8562 7.71545L12.5705 0.858304C12.225 0.627961 11.7749 0.627961 11.4294 0.858304L1.14371 7.71545C0.766556 7.96684 0.598415 8.43549 0.729806 8.86927C0.861196 9.30305 1.26104 9.59977 1.71432 9.59977H3.42858V16.4569H2.40001C1.94077 16.4569 1.53718 16.7613 1.41099 17.2029L0.0395728 22.0029C-0.0490677 22.3132 0.0130416 22.6472 0.207432 22.9048C0.401775 23.1625 0.705806 23.314 1.02859 23.314H22.9714C23.2942 23.314 23.5982 23.1626 23.7925 22.9048C23.9869 22.6472 24.0491 22.3132 23.9604 22.0029ZM12 2.95019L18.8886 7.54262H5.11149L12 2.95019ZM18.5143 9.59977V16.4569H15.5429V9.59977H18.5143ZM13.4857 9.59977V16.4569H10.5143V9.59977H13.4857ZM8.45714 9.59977V16.4569H5.48573V9.59977H8.45714ZM2.39222 21.2569L3.17593 18.5141H20.8242L21.6079 21.2569H2.39222Z" fill="#172542"/>
</svg>
