<svg width="22" height="22" viewBox="0 0 22 22" fill="none" xmlns="http://www.w3.org/2000/svg">
<g clip-path="url(#clip0)">
<path d="M19.7071 6.95926L13.0404 0.292875C12.8529 0.105316 12.5985 0 12.3333 0H3.00001C2.44773 0 2 0.447734 2 1.00001V21C2 21.5523 2.44773 22 3.00001 22H19C19.5523 22 20 21.5523 20 21V7.6664C20 7.4012 19.8946 7.14682 19.7071 6.95926ZM13.3334 3.41412L16.5857 6.66639H13.3334V3.41412ZM18 20H4.00002V1.99998H11.3334V7.6664C11.3334 8.21868 11.7811 8.66641 12.3334 8.66641H18.0001V20H18Z" fill="#172542"/>
<path d="M14.707 11.6264C14.3165 11.2358 13.6834 11.2358 13.2929 11.6265L9.99994 14.9193L8.70709 13.6265C8.31664 13.2359 7.68341 13.2359 7.29291 13.6264C6.90236 14.0169 6.90236 14.65 7.29291 15.0406L9.29276 17.0405C9.48027 17.2281 9.73461 17.3335 9.9999 17.3335C10.2651 17.3335 10.5194 17.2281 10.7069 17.0405L14.707 13.0405C15.0975 12.6501 15.0975 12.0169 14.707 11.6264Z" fill="#172542"/>
</g>
<defs>
<clipPath id="clip0">
<rect width="22" height="22" fill="white"/>
</clipPath>
</defs>
</svg>
